<?xml version="1.0" encoding="UTF-8"?>
<svg xmlns="http://www.w3.org/2000/svg"
     xmlns:xlink="http://www.w3.org/1999/xlink"
     xmlns:gadfly="http://www.gadflyjl.org/ns"
     version="1.2"
     width="141.42mm" height="100mm" viewBox="0 0 141.42 100"
     stroke="none"
     fill="#000000"
     stroke-width="0.3"
     font-size="3.88"
>
<defs>
  <marker id="arrow" markerWidth="15" markerHeight="7" refX="5" refY="3.5" orient="auto" markerUnits="strokeWidth">
    <path d="M0,0 L15,3.5 L0,7 z" stroke="context-stroke" fill="context-stroke"/>
  </marker>
</defs>
<g class="plotroot" id="img-5cfcc495-1">
  <g class="guide xlabels" font-size="2.82" font-family="'PT Sans Caption','Helvetica Neue','Helvetica',sans-serif" fill="#6C606B" id="img-5cfcc495-2">
    <g transform="translate(78.74,91.95)">
      <g class="primitive">
        <text text-anchor="middle" dy="0.6em">A</text>
      </g>
    </g>
    <g transform="translate(83.23,91.95)">
      <g class="primitive">
        <text text-anchor="middle" dy="0.6em">B</text>
      </g>
    </g>
    <g transform="translate(87.73,91.95)">
      <g class="primitive">
        <text text-anchor="middle" dy="0.6em">C</text>
      </g>
    </g>
  </g>
  <g stroke-width="0.11" stroke="#FFFFFF" id="img-5cfcc495-3">
    <g transform="translate(92.2,77.46)">
      <path fill="none" d="M-1.16,2.25 L1.16,2.25 1.16,-2.25 -1.16,-2.25 " class="primitive"/>
    </g>
    <g transform="translate(92.2,63.97)">
      <path fill="none" d="M-1.16,2.25 L1.16,2.25 1.16,-2.25 -1.16,-2.25 " class="primitive"/>
    </g>
    <g transform="translate(93.94,80.83)">
      <path fill="none" d="M-2.9,3.37 L1.74,3.37 1.74,-3.37 -0.58,-3.37 " class="primitive"/>
    </g>
    <g transform="translate(92.2,14.5)">
      <path fill="none" d="M-1.16,2.25 L1.16,2.25 1.16,-2.25 -1.16,-2.25 " class="primitive"/>
    </g>
    <g transform="translate(92.2,27.99)">
      <path fill="none" d="M-1.16,2.25 L1.16,2.25 1.16,-2.25 -1.16,-2.25 " class="primitive"/>
    </g>
    <g transform="translate(93.94,67.34)">
      <path fill="none" d="M-2.9,3.37 L1.74,3.37 1.74,-3.37 -0.58,-3.37 " class="primitive"/>
    </g>
    <g transform="translate(92.2,54.97)">
      <path fill="none" d="M-1.16,2.25 L1.16,2.25 1.16,-2.25 -1.16,-2.25 " class="primitive"/>
    </g>
    <g transform="translate(93.94,17.87)">
      <path fill="none" d="M-2.9,3.37 L1.74,3.37 1.74,-3.37 -0.58,-3.37 " class="primitive"/>
    </g>
    <g transform="translate(92.2,36.98)">
      <path fill="none" d="M-1.16,2.25 L1.16,2.25 1.16,-2.25 -1.16,-2.25 " class="primitive"/>
    </g>
    <g transform="translate(95.69,84.77)">
      <path fill="none" d="M-4.65,3.94 L2.32,3.94 2.32,-3.94 0,-3.94 " class="primitive"/>
    </g>
    <g transform="translate(92.2,45.98)">
      <path fill="none" d="M-1.16,2.25 L1.16,2.25 1.16,-2.25 -1.16,-2.25 " class="primitive"/>
    </g>
    <g transform="translate(96.27,22.93)">
      <path fill="none" d="M-2.9,5.06 L1.74,5.06 1.74,-5.06 -0.58,-5.06 " class="primitive"/>
    </g>
    <g transform="translate(96.27,61.16)">
      <path fill="none" d="M-0.58,6.18 L1.74,6.18 1.74,-6.18 -2.9,-6.18 " class="primitive"/>
    </g>
    <g transform="translate(99.17,72.96)">
      <path fill="none" d="M-1.16,11.81 L1.16,11.81 1.16,-11.81 -1.16,-11.81 " class="primitive"/>
    </g>
    <g transform="translate(98.01,29.96)">
      <path fill="none" d="M-4.65,7.03 L2.32,7.03 2.32,-7.03 0,-7.03 " class="primitive"/>
    </g>
    <g transform="translate(99.75,37.97)">
      <path fill="none" d="M-6.39,8.01 L2.9,8.01 2.9,-8.01 0.58,-8.01 " class="primitive"/>
    </g>
    <g transform="translate(103.24,55.46)">
      <path fill="none" d="M-2.9,17.5 L1.74,17.5 1.74,-17.5 -0.58,-17.5 " class="primitive"/>
    </g>
  </g>
  <g clip-path="url(#img-5cfcc495-4)">
    <g id="img-5cfcc495-5">
      <g pointer-events="visible" stroke-width="0.3" fill="#000000" fill-opacity="0.000" stroke="#000000" stroke-opacity="0.000" class="guide background" id="img-5cfcc495-6">
        <g transform="translate(83.23,50.48)" id="img-5cfcc495-7">
          <path d="M-6.75,-40.48 L6.75,-40.48 6.75,40.48 -6.75,40.48  z" class="primitive"/>
        </g>
      </g>
      <g class="guide ygridlines xfixed" stroke-dasharray="0.5,0.5" stroke-width="0.2" stroke="#D0D0E0" id="img-5cfcc495-8">
        <g transform="translate(83.23,14.5)" id="img-5cfcc495-9">
          <path fill="none" d="M-6.75,0 L6.75,0 " class="primitive"/>
        </g>
        <g transform="translate(83.23,18.99)" id="img-5cfcc495-10">
          <path fill="none" d="M-6.75,0 L6.75,0 " class="primitive"/>
        </g>
        <g transform="translate(83.23,23.49)" id="img-5cfcc495-11">
          <path fill="none" d="M-6.75,0 L6.75,0 " class="primitive"/>
        </g>
        <g transform="translate(83.23,27.99)" id="img-5cfcc495-12">
          <path fill="none" d="M-6.75,0 L6.75,0 " class="primitive"/>
        </g>
        <g transform="translate(83.23,32.49)" id="img-5cfcc495-13">
          <path fill="none" d="M-6.75,0 L6.75,0 " class="primitive"/>
        </g>
        <g transform="translate(83.23,36.98)" id="img-5cfcc495-14">
          <path fill="none" d="M-6.75,0 L6.75,0 " class="primitive"/>
        </g>
        <g transform="translate(83.23,41.48)" id="img-5cfcc495-15">
          <path fill="none" d="M-6.75,0 L6.75,0 " class="primitive"/>
        </g>
        <g transform="translate(83.23,45.98)" id="img-5cfcc495-16">
          <path fill="none" d="M-6.75,0 L6.75,0 " class="primitive"/>
        </g>
        <g transform="translate(83.23,50.48)" id="img-5cfcc495-17">
          <path fill="none" d="M-6.75,0 L6.75,0 " class="primitive"/>
        </g>
        <g transform="translate(83.23,54.97)" id="img-5cfcc495-18">
          <path fill="none" d="M-6.75,0 L6.75,0 " class="primitive"/>
        </g>
        <g transform="translate(83.23,59.47)" id="img-5cfcc495-19">
          <path fill="none" d="M-6.75,0 L6.75,0 " class="primitive"/>
        </g>
        <g transform="translate(83.23,63.97)" id="img-5cfcc495-20">
          <path fill="none" d="M-6.75,0 L6.75,0 " class="primitive"/>
        </g>
        <g transform="translate(83.23,68.46)" id="img-5cfcc495-21">
          <path fill="none" d="M-6.75,0 L6.75,0 " class="primitive"/>
        </g>
        <g transform="translate(83.23,72.96)" id="img-5cfcc495-22">
          <path fill="none" d="M-6.75,0 L6.75,0 " class="primitive"/>
        </g>
        <g transform="translate(83.23,77.46)" id="img-5cfcc495-23">
          <path fill="none" d="M-6.75,0 L6.75,0 " class="primitive"/>
        </g>
        <g transform="translate(83.23,81.96)" id="img-5cfcc495-24">
          <path fill="none" d="M-6.75,0 L6.75,0 " class="primitive"/>
        </g>
        <g transform="translate(83.23,86.45)" id="img-5cfcc495-25">
          <path fill="none" d="M-6.75,0 L6.75,0 " class="primitive"/>
        </g>
      </g>
      <g class="guide xgridlines yfixed" stroke-dasharray="0.5,0.5" stroke-width="0.2" stroke="#D0D0E0" id="img-5cfcc495-26">
        <g transform="translate(80.99,50.48)" id="img-5cfcc495-27">
          <path fill="none" d="M0,-40.48 L0,40.48 " class="primitive"/>
        </g>
        <g transform="translate(85.48,50.48)" id="img-5cfcc495-28">
          <path fill="none" d="M0,-40.48 L0,40.48 " class="primitive"/>
        </g>
      </g>
      <g class="plotpanel" id="img-5cfcc495-29">
        <metadata>
          <boundingbox value="76.4885619167595mm 10.0mm 13.491866952401619mm 80.95120171440972mm"/>
          <unitbox value="0.5 0.5 3.0 18.0"/>
        </metadata>
        <g shape-rendering="crispEdges" class="geometry" stroke="#000000" stroke-opacity="0.000" id="img-5cfcc495-30">
          <g transform="translate(78.76,12.27)" id="img-5cfcc495-31" fill="#FDFE00" fill-opacity="1">
            <path d="M-2.27,-2.27 L2.27,-2.27 2.27,2.27 -2.27,2.27  z" class="primitive"/>
          </g>
          <g transform="translate(78.76,16.77)" id="img-5cfcc495-32" fill="#E4EF00" fill-opacity="1">
            <path d="M-2.27,-2.27 L2.27,-2.27 2.27,2.27 -2.27,2.27  z" class="primitive"/>
          </g>
          <g transform="translate(78.76,21.27)" id="img-5cfcc495-33" fill="#F1F700" fill-opacity="1">
            <path d="M-2.27,-2.27 L2.27,-2.27 2.27,2.27 -2.27,2.27  z" class="primitive"/>
          </g>
          <g transform="translate(78.76,25.77)" id="img-5cfcc495-34" fill="#F1F700" fill-opacity="1">
            <path d="M-2.27,-2.27 L2.27,-2.27 2.27,2.27 -2.27,2.27  z" class="primitive"/>
          </g>
          <g transform="translate(78.76,30.26)" id="img-5cfcc495-35" fill="#008000" fill-opacity="1">
            <path d="M-2.27,-2.27 L2.27,-2.27 2.27,2.27 -2.27,2.27  z" class="primitive"/>
          </g>
          <g transform="translate(78.76,34.76)" id="img-5cfcc495-36" fill="#82B600" fill-opacity="1">
            <path d="M-2.27,-2.27 L2.27,-2.27 2.27,2.27 -2.27,2.27  z" class="primitive"/>
          </g>
          <g transform="translate(78.76,39.26)" id="img-5cfcc495-37" fill="#429400" fill-opacity="1">
            <path d="M-2.27,-2.27 L2.27,-2.27 2.27,2.27 -2.27,2.27  z" class="primitive"/>
          </g>
          <g transform="translate(78.76,43.75)" id="img-5cfcc495-38" fill="#FFAE00" fill-opacity="1">
            <path d="M-2.27,-2.27 L2.27,-2.27 2.27,2.27 -2.27,2.27  z" class="primitive"/>
          </g>
          <g transform="translate(78.76,48.25)" id="img-5cfcc495-39" fill="#4B9900" fill-opacity="1">
            <path d="M-2.27,-2.27 L2.27,-2.27 2.27,2.27 -2.27,2.27  z" class="primitive"/>
          </g>
          <g transform="translate(78.76,52.75)" id="img-5cfcc495-40" fill="#8CBC00" fill-opacity="1">
            <path d="M-2.27,-2.27 L2.27,-2.27 2.27,2.27 -2.27,2.27  z" class="primitive"/>
          </g>
          <g transform="translate(78.76,57.25)" id="img-5cfcc495-41" fill="#FFC500" fill-opacity="1">
            <path d="M-2.27,-2.27 L2.27,-2.27 2.27,2.27 -2.27,2.27  z" class="primitive"/>
          </g>
          <g transform="translate(78.76,61.74)" id="img-5cfcc495-42" fill="#B9D600" fill-opacity="1">
            <path d="M-2.27,-2.27 L2.27,-2.27 2.27,2.27 -2.27,2.27  z" class="primitive"/>
          </g>
          <g transform="translate(78.76,66.24)" id="img-5cfcc495-43" fill="#FF0000" fill-opacity="1">
            <path d="M-2.27,-2.27 L2.27,-2.27 2.27,2.27 -2.27,2.27  z" class="primitive"/>
          </g>
          <g transform="translate(78.76,70.74)" id="img-5cfcc495-44" fill="#008000" fill-opacity="1">
            <path d="M-2.27,-2.27 L2.27,-2.27 2.27,2.27 -2.27,2.27  z" class="primitive"/>
          </g>
          <g transform="translate(78.76,75.24)" id="img-5cfcc495-45" fill="#008000" fill-opacity="1">
            <path d="M-2.27,-2.27 L2.27,-2.27 2.27,2.27 -2.27,2.27  z" class="primitive"/>
          </g>
          <g transform="translate(78.76,79.73)" id="img-5cfcc495-46" fill="#FF7100" fill-opacity="1">
            <path d="M-2.27,-2.27 L2.27,-2.27 2.27,2.27 -2.27,2.27  z" class="primitive"/>
          </g>
          <g transform="translate(78.76,84.23)" id="img-5cfcc495-47" fill="#B6D500" fill-opacity="1">
            <path d="M-2.27,-2.27 L2.27,-2.27 2.27,2.27 -2.27,2.27  z" class="primitive"/>
          </g>
          <g transform="translate(78.76,88.73)" id="img-5cfcc495-48" fill="#FFB500" fill-opacity="1">
            <path d="M-2.27,-2.27 L2.27,-2.27 2.27,2.27 -2.27,2.27  z" class="primitive"/>
          </g>
          <g transform="translate(83.26,12.27)" id="img-5cfcc495-49" fill="#2F8C00" fill-opacity="1">
            <path d="M-2.27,-2.27 L2.27,-2.27 2.27,2.27 -2.27,2.27  z" class="primitive"/>
          </g>
          <g transform="translate(83.26,16.77)" id="img-5cfcc495-50" fill="#FFB800" fill-opacity="1">
            <path d="M-2.27,-2.27 L2.27,-2.27 2.27,2.27 -2.27,2.27  z" class="primitive"/>
          </g>
          <g transform="translate(83.26,21.27)" id="img-5cfcc495-51" fill="#1C8500" fill-opacity="1">
            <path d="M-2.27,-2.27 L2.27,-2.27 2.27,2.27 -2.27,2.27  z" class="primitive"/>
          </g>
          <g transform="translate(83.26,25.77)" id="img-5cfcc495-52" fill="#FFFB00" fill-opacity="1">
            <path d="M-2.27,-2.27 L2.27,-2.27 2.27,2.27 -2.27,2.27  z" class="primitive"/>
          </g>
          <g transform="translate(83.26,30.26)" id="img-5cfcc495-53" fill="#EDF500" fill-opacity="1">
            <path d="M-2.27,-2.27 L2.27,-2.27 2.27,2.27 -2.27,2.27  z" class="primitive"/>
          </g>
          <g transform="translate(83.26,34.76)" id="img-5cfcc495-54" fill="#008000" fill-opacity="1">
            <path d="M-2.27,-2.27 L2.27,-2.27 2.27,2.27 -2.27,2.27  z" class="primitive"/>
          </g>
          <g transform="translate(83.26,39.26)" id="img-5cfcc495-55" fill="#9DC600" fill-opacity="1">
            <path d="M-2.27,-2.27 L2.27,-2.27 2.27,2.27 -2.27,2.27  z" class="primitive"/>
          </g>
          <g transform="translate(83.26,43.75)" id="img-5cfcc495-56" fill="#008000" fill-opacity="1">
            <path d="M-2.27,-2.27 L2.27,-2.27 2.27,2.27 -2.27,2.27  z" class="primitive"/>
          </g>
          <g transform="translate(83.26,48.25)" id="img-5cfcc495-57" fill="#FFBE00" fill-opacity="1">
            <path d="M-2.27,-2.27 L2.27,-2.27 2.27,2.27 -2.27,2.27  z" class="primitive"/>
          </g>
          <g transform="translate(83.26,52.75)" id="img-5cfcc495-58" fill="#FF0000" fill-opacity="1">
            <path d="M-2.27,-2.27 L2.27,-2.27 2.27,2.27 -2.27,2.27  z" class="primitive"/>
          </g>
          <g transform="translate(83.26,57.25)" id="img-5cfcc495-59" fill="#F3F800" fill-opacity="1">
            <path d="M-2.27,-2.27 L2.27,-2.27 2.27,2.27 -2.27,2.27  z" class="primitive"/>
          </g>
          <g transform="translate(83.26,61.74)" id="img-5cfcc495-60" fill="#008000" fill-opacity="1">
            <path d="M-2.27,-2.27 L2.27,-2.27 2.27,2.27 -2.27,2.27  z" class="primitive"/>
          </g>
          <g transform="translate(83.26,66.24)" id="img-5cfcc495-61" fill="#1A8500" fill-opacity="1">
            <path d="M-2.27,-2.27 L2.27,-2.27 2.27,2.27 -2.27,2.27  z" class="primitive"/>
          </g>
          <g transform="translate(83.26,70.74)" id="img-5cfcc495-62" fill="#4B9800" fill-opacity="1">
            <path d="M-2.27,-2.27 L2.27,-2.27 2.27,2.27 -2.27,2.27  z" class="primitive"/>
          </g>
          <g transform="translate(83.26,75.24)" id="img-5cfcc495-63" fill="#008000" fill-opacity="1">
            <path d="M-2.27,-2.27 L2.27,-2.27 2.27,2.27 -2.27,2.27  z" class="primitive"/>
          </g>
          <g transform="translate(83.26,79.73)" id="img-5cfcc495-64" fill="#FFE000" fill-opacity="1">
            <path d="M-2.27,-2.27 L2.27,-2.27 2.27,2.27 -2.27,2.27  z" class="primitive"/>
          </g>
          <g transform="translate(83.26,84.23)" id="img-5cfcc495-65" fill="#F1F700" fill-opacity="1">
            <path d="M-2.27,-2.27 L2.27,-2.27 2.27,2.27 -2.27,2.27  z" class="primitive"/>
          </g>
          <g transform="translate(83.26,88.73)" id="img-5cfcc495-66" fill="#008000" fill-opacity="1">
            <path d="M-2.27,-2.27 L2.27,-2.27 2.27,2.27 -2.27,2.27  z" class="primitive"/>
          </g>
          <g transform="translate(87.76,12.27)" id="img-5cfcc495-67" fill="#FF7800" fill-opacity="1">
            <path d="M-2.27,-2.27 L2.27,-2.27 2.27,2.27 -2.27,2.27  z" class="primitive"/>
          </g>
          <g transform="translate(87.76,16.77)" id="img-5cfcc495-68" fill="#8ABB00" fill-opacity="1">
            <path d="M-2.27,-2.27 L2.27,-2.27 2.27,2.27 -2.27,2.27  z" class="primitive"/>
          </g>
          <g transform="translate(87.76,21.27)" id="img-5cfcc495-69" fill="#FEFF00" fill-opacity="1">
            <path d="M-2.27,-2.27 L2.27,-2.27 2.27,2.27 -2.27,2.27  z" class="primitive"/>
          </g>
          <g transform="translate(87.76,25.77)" id="img-5cfcc495-70" fill="#FFE700" fill-opacity="1">
            <path d="M-2.27,-2.27 L2.27,-2.27 2.27,2.27 -2.27,2.27  z" class="primitive"/>
          </g>
          <g transform="translate(87.76,30.26)" id="img-5cfcc495-71" fill="#FF4200" fill-opacity="1">
            <path d="M-2.27,-2.27 L2.27,-2.27 2.27,2.27 -2.27,2.27  z" class="primitive"/>
          </g>
          <g transform="translate(87.76,34.76)" id="img-5cfcc495-72" fill="#FF0700" fill-opacity="1">
            <path d="M-2.27,-2.27 L2.27,-2.27 2.27,2.27 -2.27,2.27  z" class="primitive"/>
          </g>
          <g transform="translate(87.76,39.26)" id="img-5cfcc495-73" fill="#C9E000" fill-opacity="1">
            <path d="M-2.27,-2.27 L2.27,-2.27 2.27,2.27 -2.27,2.27  z" class="primitive"/>
          </g>
          <g transform="translate(87.76,43.75)" id="img-5cfcc495-74" fill="#008000" fill-opacity="1">
            <path d="M-2.27,-2.27 L2.27,-2.27 2.27,2.27 -2.27,2.27  z" class="primitive"/>
          </g>
          <g transform="translate(87.76,48.25)" id="img-5cfcc495-75" fill="#008000" fill-opacity="1">
            <path d="M-2.27,-2.27 L2.27,-2.27 2.27,2.27 -2.27,2.27  z" class="primitive"/>
          </g>
          <g transform="translate(87.76,52.75)" id="img-5cfcc495-76" fill="#A6CB00" fill-opacity="1">
            <path d="M-2.27,-2.27 L2.27,-2.27 2.27,2.27 -2.27,2.27  z" class="primitive"/>
          </g>
          <g transform="translate(87.76,57.25)" id="img-5cfcc495-77" fill="#D4E600" fill-opacity="1">
            <path d="M-2.27,-2.27 L2.27,-2.27 2.27,2.27 -2.27,2.27  z" class="primitive"/>
          </g>
          <g transform="translate(87.76,61.74)" id="img-5cfcc495-78" fill="#A0C800" fill-opacity="1">
            <path d="M-2.27,-2.27 L2.27,-2.27 2.27,2.27 -2.27,2.27  z" class="primitive"/>
          </g>
          <g transform="translate(87.76,66.24)" id="img-5cfcc495-79" fill="#FF3F00" fill-opacity="1">
            <path d="M-2.27,-2.27 L2.27,-2.27 2.27,2.27 -2.27,2.27  z" class="primitive"/>
          </g>
          <g transform="translate(87.76,70.74)" id="img-5cfcc495-80" fill="#FF0000" fill-opacity="1">
            <path d="M-2.27,-2.27 L2.27,-2.27 2.27,2.27 -2.27,2.27  z" class="primitive"/>
          </g>
          <g transform="translate(87.76,75.24)" id="img-5cfcc495-81" fill="#FF3300" fill-opacity="1">
            <path d="M-2.27,-2.27 L2.27,-2.27 2.27,2.27 -2.27,2.27  z" class="primitive"/>
          </g>
          <g transform="translate(87.76,79.73)" id="img-5cfcc495-82" fill="#FF7300" fill-opacity="1">
            <path d="M-2.27,-2.27 L2.27,-2.27 2.27,2.27 -2.27,2.27  z" class="primitive"/>
          </g>
          <g transform="translate(87.76,84.23)" id="img-5cfcc495-83" fill="#A3C900" fill-opacity="1">
            <path d="M-2.27,-2.27 L2.27,-2.27 2.27,2.27 -2.27,2.27  z" class="primitive"/>
          </g>
          <g transform="translate(87.76,88.73)" id="img-5cfcc495-84" fill="#BBD800" fill-opacity="1">
            <path d="M-2.27,-2.27 L2.27,-2.27 2.27,2.27 -2.27,2.27  z" class="primitive"/>
          </g>
        </g>
      </g>
    </g>
  </g>
  <g class="guide ylabels" font-size="2.82" font-family="'PT Sans Caption','Helvetica Neue','Helvetica',sans-serif" fill="#6C606B" id="img-5cfcc495-85">
    <g transform="translate(75.49,12.25)" id="img-5cfcc495-86">
      <g class="primitive">
        <text text-anchor="end" dy="0.35em">State map fault density A</text>
      </g>
    </g>
    <g transform="translate(75.49,16.75)" id="img-5cfcc495-87">
      <g class="primitive">
        <text text-anchor="end" dy="0.35em">Silica geothermometer A</text>
      </g>
    </g>
    <g transform="translate(75.49,21.24)" id="img-5cfcc495-88">
      <g class="primitive">
        <text text-anchor="end" dy="0.35em">Hydraulic gradient A</text>
      </g>
    </g>
    <g transform="translate(75.49,25.74)" id="img-5cfcc495-89">
      <g class="primitive">
        <text text-anchor="end" dy="0.35em">Boron concentration B</text>
      </g>
    </g>
    <g transform="translate(75.49,30.24)" id="img-5cfcc495-90">
      <g class="primitive">
        <text text-anchor="end" dy="0.35em">Quaternary fault density B</text>
      </g>
    </g>
    <g transform="translate(75.49,34.74)" id="img-5cfcc495-91">
      <g class="primitive">
        <text text-anchor="end" dy="0.35em">Spring density B</text>
      </g>
    </g>
    <g transform="translate(75.49,39.23)" id="img-5cfcc495-92">
      <g class="primitive">
        <text text-anchor="end" dy="0.35em">Volcanic vent density B</text>
      </g>
    </g>
    <g transform="translate(75.49,43.73)" id="img-5cfcc495-93">
      <g class="primitive">
        <text text-anchor="end" dy="0.35em">Precipitation B</text>
      </g>
    </g>
    <g transform="translate(75.49,48.23)" id="img-5cfcc495-94">
      <g class="primitive">
        <text text-anchor="end" dy="0.35em">Depth to basement B</text>
      </g>
    </g>
    <g transform="translate(75.49,52.72)" id="img-5cfcc495-95">
      <g class="primitive">
        <text text-anchor="end" dy="0.35em">Gravity anomaly C</text>
      </g>
    </g>
    <g transform="translate(75.49,57.22)" id="img-5cfcc495-96">
      <g class="primitive">
        <text text-anchor="end" dy="0.35em">Magnetic intensity C</text>
      </g>
    </g>
    <g transform="translate(75.49,61.72)" id="img-5cfcc495-97">
      <g class="primitive">
        <text text-anchor="end" dy="0.35em">Volcanic dike density C</text>
      </g>
    </g>
    <g transform="translate(75.49,66.22)" id="img-5cfcc495-98">
      <g class="primitive">
        <text text-anchor="end" dy="0.35em">Drainage density C</text>
      </g>
    </g>
    <g transform="translate(75.49,70.71)" id="img-5cfcc495-99">
      <g class="primitive">
        <text text-anchor="end" dy="0.35em">Fault intersection density C</text>
      </g>
    </g>
    <g transform="translate(75.49,75.21)" id="img-5cfcc495-100">
      <g class="primitive">
        <text text-anchor="end" dy="0.35em">Seismicity C</text>
      </g>
    </g>
    <g transform="translate(75.49,79.71)" id="img-5cfcc495-101">
      <g class="primitive">
        <text text-anchor="end" dy="0.35em">Lithium concentration C</text>
      </g>
    </g>
    <g transform="translate(75.49,84.21)" id="img-5cfcc495-102">
      <g class="primitive">
        <text text-anchor="end" dy="0.35em">Heat flow C</text>
      </g>
    </g>
    <g transform="translate(75.49,88.7)" id="img-5cfcc495-103">
      <g class="primitive">
        <text text-anchor="end" dy="0.35em">Crustal thickness C</text>
      </g>
    </g>
  </g>
  <g stroke-width="0.11" stroke="#FFFFFF" id="img-5cfcc495-104">
    <g transform="translate(85.48,7.96)" id="img-5cfcc495-105">
      <path fill="none" d="M-2.25,0.99 L-2.25,-0.99 2.25,-0.99 2.25,0.99 " class="primitive"/>
    </g>
    <g transform="translate(82.11,6.48)" id="img-5cfcc495-106">
      <path fill="none" d="M-3.37,2.46 L-3.37,-1.48 3.37,-1.48 3.37,0.49 " class="primitive"/>
    </g>
  </g>
</g>
<defs>
  <clipPath id="img-5cfcc495-4">
    <path d="M76.49,10 L89.98,10 89.98,90.95 76.49,90.95 " />
  </clipPath>
</defs>
</svg>
