<?xml version="1.0" encoding="UTF-8"?>
<svg xmlns="http://www.w3.org/2000/svg"
     xmlns:xlink="http://www.w3.org/1999/xlink"
     xmlns:gadfly="http://www.gadflyjl.org/ns"
     version="1.2"
     width="141.42mm" height="100mm" viewBox="0 0 141.42 100"
     stroke="none"
     fill="#000000"
     stroke-width="0.3"
     font-size="3.88"
>
<defs>
  <marker id="arrow" markerWidth="15" markerHeight="7" refX="5" refY="3.5" orient="auto" markerUnits="strokeWidth">
    <path d="M0,0 L15,3.5 L0,7 z" stroke="context-stroke" fill="context-stroke"/>
  </marker>
</defs>
<g class="plotroot" id="img-74c58907-1">
  <g class="guide xlabels" font-size="2.82" font-family="'PT Sans Caption','Helvetica Neue','Helvetica',sans-serif" fill="#6C606B" id="img-74c58907-2">
    <g transform="translate(82.24,91.97)">
      <g class="primitive">
        <text text-anchor="middle" dy="0.6em">A</text>
      </g>
    </g>
    <g transform="translate(86.88,91.97)">
      <g class="primitive">
        <text text-anchor="middle" dy="0.6em">B</text>
      </g>
    </g>
  </g>
  <g stroke-width="0.11" stroke="#FFFFFF" id="img-74c58907-3">
    <g transform="translate(91.4,77.06)">
      <path fill="none" d="M-1.14,2.32 L1.14,2.32 1.14,-2.32 -1.14,-2.32 " class="primitive"/>
    </g>
    <g transform="translate(91.4,26.05)">
      <path fill="none" d="M-1.14,2.32 L1.14,2.32 1.14,-2.32 -1.14,-2.32 " class="primitive"/>
    </g>
    <g transform="translate(91.4,63.15)">
      <path fill="none" d="M-1.14,2.32 L1.14,2.32 1.14,-2.32 -1.14,-2.32 " class="primitive"/>
    </g>
    <g transform="translate(91.4,39.96)">
      <path fill="none" d="M-1.14,2.32 L1.14,2.32 1.14,-2.32 -1.14,-2.32 " class="primitive"/>
    </g>
    <g transform="translate(91.4,86.34)">
      <path fill="none" d="M-1.14,2.32 L1.14,2.32 1.14,-2.32 -1.14,-2.32 " class="primitive"/>
    </g>
    <g transform="translate(93.12,66.63)">
      <path fill="none" d="M-2.86,3.48 L1.72,3.48 1.72,-3.48 -0.57,-3.48 " class="primitive"/>
    </g>
    <g transform="translate(91.4,53.87)">
      <path fill="none" d="M-1.14,2.32 L1.14,2.32 1.14,-2.32 -1.14,-2.32 " class="primitive"/>
    </g>
    <g transform="translate(91.4,12.14)">
      <path fill="none" d="M-1.14,2.32 L1.14,2.32 1.14,-2.32 -1.14,-2.32 " class="primitive"/>
    </g>
    <g transform="translate(93.12,29.53)">
      <path fill="none" d="M-2.86,3.48 L1.72,3.48 1.72,-3.48 -0.57,-3.48 " class="primitive"/>
    </g>
    <g transform="translate(93.12,43.44)">
      <path fill="none" d="M-2.86,3.48 L1.72,3.48 1.72,-3.48 -0.57,-3.48 " class="primitive"/>
    </g>
    <g transform="translate(95.4,71.84)">
      <path fill="none" d="M-2.86,5.22 L1.72,5.22 1.72,-5.22 -0.57,-5.22 " class="primitive"/>
    </g>
    <g transform="translate(93.12,15.62)">
      <path fill="none" d="M-2.86,3.48 L1.72,3.48 1.72,-3.48 -0.57,-3.48 " class="primitive"/>
    </g>
    <g transform="translate(95.4,48.66)">
      <path fill="none" d="M-2.86,5.22 L1.72,5.22 1.72,-5.22 -0.57,-5.22 " class="primitive"/>
    </g>
    <g transform="translate(97.12,79.09)">
      <path fill="none" d="M-4.58,7.25 L2.29,7.25 2.29,-7.25 0,-7.25 " class="primitive"/>
    </g>
    <g transform="translate(95.98,22.57)">
      <path fill="none" d="M-1.14,6.96 L1.14,6.96 1.14,-6.96 -1.14,-6.96 " class="primitive"/>
    </g>
    <g transform="translate(98.26,35.61)">
      <path fill="none" d="M-1.14,13.04 L1.14,13.04 1.14,-13.04 -1.14,-13.04 " class="primitive"/>
    </g>
    <g transform="translate(100.55,57.35)">
      <path fill="none" d="M-1.14,21.74 L1.14,21.74 1.14,-21.74 -1.14,-21.74 " class="primitive"/>
    </g>
  </g>
  <g clip-path="url(#img-74c58907-4)">
    <g id="img-74c58907-5">
      <g pointer-events="visible" stroke-width="0.3" fill="#000000" fill-opacity="0.000" stroke="#000000" stroke-opacity="0.000" class="guide background" id="img-74c58907-6">
        <g transform="translate(84.56,49.24)" id="img-74c58907-7">
          <path d="M-4.64,-41.74 L4.64,-41.74 4.64,41.74 -4.64,41.74  z" class="primitive"/>
        </g>
      </g>
      <g class="guide ygridlines xfixed" stroke-dasharray="0.5,0.5" stroke-width="0.2" stroke="#D0D0E0" id="img-74c58907-8">
        <g transform="translate(84.56,12.14)" id="img-74c58907-9">
          <path fill="none" d="M-4.64,0 L4.64,0 " class="primitive"/>
        </g>
        <g transform="translate(84.56,16.77)" id="img-74c58907-10">
          <path fill="none" d="M-4.64,0 L4.64,0 " class="primitive"/>
        </g>
        <g transform="translate(84.56,21.41)" id="img-74c58907-11">
          <path fill="none" d="M-4.64,0 L4.64,0 " class="primitive"/>
        </g>
        <g transform="translate(84.56,26.05)" id="img-74c58907-12">
          <path fill="none" d="M-4.64,0 L4.64,0 " class="primitive"/>
        </g>
        <g transform="translate(84.56,30.69)" id="img-74c58907-13">
          <path fill="none" d="M-4.64,0 L4.64,0 " class="primitive"/>
        </g>
        <g transform="translate(84.56,35.32)" id="img-74c58907-14">
          <path fill="none" d="M-4.64,0 L4.64,0 " class="primitive"/>
        </g>
        <g transform="translate(84.56,39.96)" id="img-74c58907-15">
          <path fill="none" d="M-4.64,0 L4.64,0 " class="primitive"/>
        </g>
        <g transform="translate(84.56,44.6)" id="img-74c58907-16">
          <path fill="none" d="M-4.64,0 L4.64,0 " class="primitive"/>
        </g>
        <g transform="translate(84.56,49.24)" id="img-74c58907-17">
          <path fill="none" d="M-4.64,0 L4.64,0 " class="primitive"/>
        </g>
        <g transform="translate(84.56,53.87)" id="img-74c58907-18">
          <path fill="none" d="M-4.64,0 L4.64,0 " class="primitive"/>
        </g>
        <g transform="translate(84.56,58.51)" id="img-74c58907-19">
          <path fill="none" d="M-4.64,0 L4.64,0 " class="primitive"/>
        </g>
        <g transform="translate(84.56,63.15)" id="img-74c58907-20">
          <path fill="none" d="M-4.64,0 L4.64,0 " class="primitive"/>
        </g>
        <g transform="translate(84.56,67.79)" id="img-74c58907-21">
          <path fill="none" d="M-4.64,0 L4.64,0 " class="primitive"/>
        </g>
        <g transform="translate(84.56,72.42)" id="img-74c58907-22">
          <path fill="none" d="M-4.64,0 L4.64,0 " class="primitive"/>
        </g>
        <g transform="translate(84.56,77.06)" id="img-74c58907-23">
          <path fill="none" d="M-4.64,0 L4.64,0 " class="primitive"/>
        </g>
        <g transform="translate(84.56,81.7)" id="img-74c58907-24">
          <path fill="none" d="M-4.64,0 L4.64,0 " class="primitive"/>
        </g>
        <g transform="translate(84.56,86.34)" id="img-74c58907-25">
          <path fill="none" d="M-4.64,0 L4.64,0 " class="primitive"/>
        </g>
      </g>
      <g class="guide xgridlines yfixed" stroke-dasharray="0.5,0.5" stroke-width="0.2" stroke="#D0D0E0" id="img-74c58907-26">
        <g transform="translate(84.56,49.24)" id="img-74c58907-27">
          <path fill="none" d="M0,-41.74 L0,41.74 " class="primitive"/>
        </g>
      </g>
      <g class="plotpanel" id="img-74c58907-28">
        <metadata>
          <boundingbox value="79.9220042845016mm 7.5mm 9.274843870563272mm 83.47359483506945mm"/>
          <unitbox value="0.5 0.5 2.0 18.0"/>
        </metadata>
        <g shape-rendering="crispEdges" class="geometry" stroke="#000000" stroke-opacity="0.000" id="img-74c58907-29">
          <g transform="translate(82.27,9.84)" id="img-74c58907-30" fill="#E1ED00" fill-opacity="1">
            <path d="M-2.34,-2.34 L2.34,-2.34 2.34,2.34 -2.34,2.34  z" class="primitive"/>
          </g>
          <g transform="translate(82.27,14.48)" id="img-74c58907-31" fill="#59A000" fill-opacity="1">
            <path d="M-2.34,-2.34 L2.34,-2.34 2.34,2.34 -2.34,2.34  z" class="primitive"/>
          </g>
          <g transform="translate(82.27,19.12)" id="img-74c58907-32" fill="#FFE100" fill-opacity="1">
            <path d="M-2.34,-2.34 L2.34,-2.34 2.34,2.34 -2.34,2.34  z" class="primitive"/>
          </g>
          <g transform="translate(82.27,23.76)" id="img-74c58907-33" fill="#B6D400" fill-opacity="1">
            <path d="M-2.34,-2.34 L2.34,-2.34 2.34,2.34 -2.34,2.34  z" class="primitive"/>
          </g>
          <g transform="translate(82.27,28.39)" id="img-74c58907-34" fill="#FF0000" fill-opacity="1">
            <path d="M-2.34,-2.34 L2.34,-2.34 2.34,2.34 -2.34,2.34  z" class="primitive"/>
          </g>
          <g transform="translate(82.27,33.03)" id="img-74c58907-35" fill="#4B9800" fill-opacity="1">
            <path d="M-2.34,-2.34 L2.34,-2.34 2.34,2.34 -2.34,2.34  z" class="primitive"/>
          </g>
          <g transform="translate(82.27,37.67)" id="img-74c58907-36" fill="#5EA200" fill-opacity="1">
            <path d="M-2.34,-2.34 L2.34,-2.34 2.34,2.34 -2.34,2.34  z" class="primitive"/>
          </g>
          <g transform="translate(82.27,42.31)" id="img-74c58907-37" fill="#FFF100" fill-opacity="1">
            <path d="M-2.34,-2.34 L2.34,-2.34 2.34,2.34 -2.34,2.34  z" class="primitive"/>
          </g>
          <g transform="translate(82.27,46.94)" id="img-74c58907-38" fill="#FF8C00" fill-opacity="1">
            <path d="M-2.34,-2.34 L2.34,-2.34 2.34,2.34 -2.34,2.34  z" class="primitive"/>
          </g>
          <g transform="translate(82.27,51.58)" id="img-74c58907-39" fill="#A0C700" fill-opacity="1">
            <path d="M-2.34,-2.34 L2.34,-2.34 2.34,2.34 -2.34,2.34  z" class="primitive"/>
          </g>
          <g transform="translate(82.27,56.22)" id="img-74c58907-40" fill="#FFBB00" fill-opacity="1">
            <path d="M-2.34,-2.34 L2.34,-2.34 2.34,2.34 -2.34,2.34  z" class="primitive"/>
          </g>
          <g transform="translate(82.27,60.86)" id="img-74c58907-41" fill="#008000" fill-opacity="1">
            <path d="M-2.34,-2.34 L2.34,-2.34 2.34,2.34 -2.34,2.34  z" class="primitive"/>
          </g>
          <g transform="translate(82.27,65.49)" id="img-74c58907-42" fill="#BBD800" fill-opacity="1">
            <path d="M-2.34,-2.34 L2.34,-2.34 2.34,2.34 -2.34,2.34  z" class="primitive"/>
          </g>
          <g transform="translate(82.27,70.13)" id="img-74c58907-43" fill="#459500" fill-opacity="1">
            <path d="M-2.34,-2.34 L2.34,-2.34 2.34,2.34 -2.34,2.34  z" class="primitive"/>
          </g>
          <g transform="translate(82.27,74.77)" id="img-74c58907-44" fill="#FFD200" fill-opacity="1">
            <path d="M-2.34,-2.34 L2.34,-2.34 2.34,2.34 -2.34,2.34  z" class="primitive"/>
          </g>
          <g transform="translate(82.27,79.41)" id="img-74c58907-45" fill="#B4D300" fill-opacity="1">
            <path d="M-2.34,-2.34 L2.34,-2.34 2.34,2.34 -2.34,2.34  z" class="primitive"/>
          </g>
          <g transform="translate(82.27,84.04)" id="img-74c58907-46" fill="#F7FA00" fill-opacity="1">
            <path d="M-2.34,-2.34 L2.34,-2.34 2.34,2.34 -2.34,2.34  z" class="primitive"/>
          </g>
          <g transform="translate(82.27,88.68)" id="img-74c58907-47" fill="#148300" fill-opacity="1">
            <path d="M-2.34,-2.34 L2.34,-2.34 2.34,2.34 -2.34,2.34  z" class="primitive"/>
          </g>
          <g transform="translate(86.9,9.84)" id="img-74c58907-48" fill="#FFE900" fill-opacity="1">
            <path d="M-2.34,-2.34 L2.34,-2.34 2.34,2.34 -2.34,2.34  z" class="primitive"/>
          </g>
          <g transform="translate(86.9,14.48)" id="img-74c58907-49" fill="#FF0000" fill-opacity="1">
            <path d="M-2.34,-2.34 L2.34,-2.34 2.34,2.34 -2.34,2.34  z" class="primitive"/>
          </g>
          <g transform="translate(86.9,19.12)" id="img-74c58907-50" fill="#FAFC00" fill-opacity="1">
            <path d="M-2.34,-2.34 L2.34,-2.34 2.34,2.34 -2.34,2.34  z" class="primitive"/>
          </g>
          <g transform="translate(86.9,23.76)" id="img-74c58907-51" fill="#2E8B00" fill-opacity="1">
            <path d="M-2.34,-2.34 L2.34,-2.34 2.34,2.34 -2.34,2.34  z" class="primitive"/>
          </g>
          <g transform="translate(86.9,28.39)" id="img-74c58907-52" fill="#68A800" fill-opacity="1">
            <path d="M-2.34,-2.34 L2.34,-2.34 2.34,2.34 -2.34,2.34  z" class="primitive"/>
          </g>
          <g transform="translate(86.9,33.03)" id="img-74c58907-53" fill="#A9CD00" fill-opacity="1">
            <path d="M-2.34,-2.34 L2.34,-2.34 2.34,2.34 -2.34,2.34  z" class="primitive"/>
          </g>
          <g transform="translate(86.9,37.67)" id="img-74c58907-54" fill="#5FA300" fill-opacity="1">
            <path d="M-2.34,-2.34 L2.34,-2.34 2.34,2.34 -2.34,2.34  z" class="primitive"/>
          </g>
          <g transform="translate(86.9,42.31)" id="img-74c58907-55" fill="#74AF00" fill-opacity="1">
            <path d="M-2.34,-2.34 L2.34,-2.34 2.34,2.34 -2.34,2.34  z" class="primitive"/>
          </g>
          <g transform="translate(86.9,46.94)" id="img-74c58907-56" fill="#FFBB00" fill-opacity="1">
            <path d="M-2.34,-2.34 L2.34,-2.34 2.34,2.34 -2.34,2.34  z" class="primitive"/>
          </g>
          <g transform="translate(86.9,51.58)" id="img-74c58907-57" fill="#F3F800" fill-opacity="1">
            <path d="M-2.34,-2.34 L2.34,-2.34 2.34,2.34 -2.34,2.34  z" class="primitive"/>
          </g>
          <g transform="translate(86.9,56.22)" id="img-74c58907-58" fill="#008000" fill-opacity="1">
            <path d="M-2.34,-2.34 L2.34,-2.34 2.34,2.34 -2.34,2.34  z" class="primitive"/>
          </g>
          <g transform="translate(86.9,60.86)" id="img-74c58907-59" fill="#FFC300" fill-opacity="1">
            <path d="M-2.34,-2.34 L2.34,-2.34 2.34,2.34 -2.34,2.34  z" class="primitive"/>
          </g>
          <g transform="translate(86.9,65.49)" id="img-74c58907-60" fill="#509B00" fill-opacity="1">
            <path d="M-2.34,-2.34 L2.34,-2.34 2.34,2.34 -2.34,2.34  z" class="primitive"/>
          </g>
          <g transform="translate(86.9,70.13)" id="img-74c58907-61" fill="#B6D400" fill-opacity="1">
            <path d="M-2.34,-2.34 L2.34,-2.34 2.34,2.34 -2.34,2.34  z" class="primitive"/>
          </g>
          <g transform="translate(86.9,74.77)" id="img-74c58907-62" fill="#008000" fill-opacity="1">
            <path d="M-2.34,-2.34 L2.34,-2.34 2.34,2.34 -2.34,2.34  z" class="primitive"/>
          </g>
          <g transform="translate(86.9,79.41)" id="img-74c58907-63" fill="#FFB800" fill-opacity="1">
            <path d="M-2.34,-2.34 L2.34,-2.34 2.34,2.34 -2.34,2.34  z" class="primitive"/>
          </g>
          <g transform="translate(86.9,84.04)" id="img-74c58907-64" fill="#439400" fill-opacity="1">
            <path d="M-2.34,-2.34 L2.34,-2.34 2.34,2.34 -2.34,2.34  z" class="primitive"/>
          </g>
          <g transform="translate(86.9,88.68)" id="img-74c58907-65" fill="#FFD400" fill-opacity="1">
            <path d="M-2.34,-2.34 L2.34,-2.34 2.34,2.34 -2.34,2.34  z" class="primitive"/>
          </g>
        </g>
      </g>
    </g>
  </g>
  <g class="guide ylabels" font-size="2.82" font-family="'PT Sans Caption','Helvetica Neue','Helvetica',sans-serif" fill="#6C606B" id="img-74c58907-66">
    <g transform="translate(78.92,9.82)" id="img-74c58907-67">
      <g class="primitive">
        <text text-anchor="end" dy="0.35em">Boron concentration A</text>
      </g>
    </g>
    <g transform="translate(78.92,14.46)" id="img-74c58907-68">
      <g class="primitive">
        <text text-anchor="end" dy="0.35em">Gravity anomaly A</text>
      </g>
    </g>
    <g transform="translate(78.92,19.09)" id="img-74c58907-69">
      <g class="primitive">
        <text text-anchor="end" dy="0.35em">Magnetic intensity A</text>
      </g>
    </g>
    <g transform="translate(78.92,23.73)" id="img-74c58907-70">
      <g class="primitive">
        <text text-anchor="end" dy="0.35em">Volcanic dike density A</text>
      </g>
    </g>
    <g transform="translate(78.92,28.37)" id="img-74c58907-71">
      <g class="primitive">
        <text text-anchor="end" dy="0.35em">Drainage density A</text>
      </g>
    </g>
    <g transform="translate(78.92,33.01)" id="img-74c58907-72">
      <g class="primitive">
        <text text-anchor="end" dy="0.35em">Fault intersection density A</text>
      </g>
    </g>
    <g transform="translate(78.92,37.64)" id="img-74c58907-73">
      <g class="primitive">
        <text text-anchor="end" dy="0.35em">Seismicity A</text>
      </g>
    </g>
    <g transform="translate(78.92,42.28)" id="img-74c58907-74">
      <g class="primitive">
        <text text-anchor="end" dy="0.35em">State map fault density A</text>
      </g>
    </g>
    <g transform="translate(78.92,46.92)" id="img-74c58907-75">
      <g class="primitive">
        <text text-anchor="end" dy="0.35em">Lithium concentration A</text>
      </g>
    </g>
    <g transform="translate(78.92,51.56)" id="img-74c58907-76">
      <g class="primitive">
        <text text-anchor="end" dy="0.35em">Heat flow A</text>
      </g>
    </g>
    <g transform="translate(78.92,56.19)" id="img-74c58907-77">
      <g class="primitive">
        <text text-anchor="end" dy="0.35em">Crustal thickness A</text>
      </g>
    </g>
    <g transform="translate(78.92,60.83)" id="img-74c58907-78">
      <g class="primitive">
        <text text-anchor="end" dy="0.35em">Quaternary fault density B</text>
      </g>
    </g>
    <g transform="translate(78.92,65.47)" id="img-74c58907-79">
      <g class="primitive">
        <text text-anchor="end" dy="0.35em">Spring density B</text>
      </g>
    </g>
    <g transform="translate(78.92,70.11)" id="img-74c58907-80">
      <g class="primitive">
        <text text-anchor="end" dy="0.35em">Volcanic vent density B</text>
      </g>
    </g>
    <g transform="translate(78.92,74.74)" id="img-74c58907-81">
      <g class="primitive">
        <text text-anchor="end" dy="0.35em">Precipitation B</text>
      </g>
    </g>
    <g transform="translate(78.92,79.38)" id="img-74c58907-82">
      <g class="primitive">
        <text text-anchor="end" dy="0.35em">Silica geothermometer B</text>
      </g>
    </g>
    <g transform="translate(78.92,84.02)" id="img-74c58907-83">
      <g class="primitive">
        <text text-anchor="end" dy="0.35em">Hydraulic gradient B</text>
      </g>
    </g>
    <g transform="translate(78.92,88.65)" id="img-74c58907-84">
      <g class="primitive">
        <text text-anchor="end" dy="0.35em">Depth to basement B</text>
      </g>
    </g>
  </g>
  <g stroke-width="0.11" stroke="#FFFFFF" id="img-74c58907-85">
    <g transform="translate(84.56,5.72)" id="img-74c58907-86">
      <path fill="none" d="M-2.32,0.72 L-2.32,-0.72 2.32,-0.72 2.32,0.72 " class="primitive"/>
    </g>
  </g>
</g>
<defs>
  <clipPath id="img-74c58907-4">
    <path d="M79.92,7.5 L89.2,7.5 89.2,90.97 79.92,90.97 " />
  </clipPath>
</defs>
</svg>
