<?xml version="1.0" encoding="UTF-8"?>
<svg xmlns="http://www.w3.org/2000/svg"
     xmlns:xlink="http://www.w3.org/1999/xlink"
     xmlns:gadfly="http://www.gadflyjl.org/ns"
     version="1.2"
     width="141.42mm" height="100mm" viewBox="0 0 141.42 100"
     stroke="none"
     fill="#000000"
     stroke-width="0.3"
     font-size="3.88"
>
<defs>
  <marker id="arrow" markerWidth="15" markerHeight="7" refX="5" refY="3.5" orient="auto" markerUnits="strokeWidth">
    <path d="M0,0 L15,3.5 L0,7 z" stroke="context-stroke" fill="context-stroke"/>
  </marker>
</defs>
<g class="plotroot" id="img-adefe6b2-1">
  <g class="guide xlabels" font-size="2.82" font-family="'PT Sans Caption','Helvetica Neue','Helvetica',sans-serif" fill="#6C606B" id="img-adefe6b2-2">
    <g transform="translate(76.7,91.95)">
      <g class="primitive">
        <text text-anchor="middle" dy="0.6em">A</text>
      </g>
    </g>
    <g transform="translate(81.06,91.95)">
      <g class="primitive">
        <text text-anchor="middle" dy="0.6em">B</text>
      </g>
    </g>
    <g transform="translate(85.41,91.95)">
      <g class="primitive">
        <text text-anchor="middle" dy="0.6em">C</text>
      </g>
    </g>
    <g transform="translate(89.77,91.95)">
      <g class="primitive">
        <text text-anchor="middle" dy="0.6em">D</text>
      </g>
    </g>
  </g>
  <g stroke-width="0.11" stroke="#FFFFFF" id="img-adefe6b2-3">
    <g transform="translate(94.17,47.37)">
      <path fill="none" d="M-1.16,2.18 L1.16,2.18 1.16,-2.18 -1.16,-2.18 " class="primitive"/>
    </g>
    <g transform="translate(94.17,69.16)">
      <path fill="none" d="M-1.16,2.18 L1.16,2.18 1.16,-2.18 -1.16,-2.18 " class="primitive"/>
    </g>
    <g transform="translate(95.91,72.43)">
      <path fill="none" d="M-2.9,3.27 L1.74,3.27 1.74,-3.27 -0.58,-3.27 " class="primitive"/>
    </g>
    <g transform="translate(94.17,25.58)">
      <path fill="none" d="M-1.16,2.18 L1.16,2.18 1.16,-2.18 -1.16,-2.18 " class="primitive"/>
    </g>
    <g transform="translate(94.17,16.86)">
      <path fill="none" d="M-1.16,2.18 L1.16,2.18 1.16,-2.18 -1.16,-2.18 " class="primitive"/>
    </g>
    <g transform="translate(94.17,34.29)">
      <path fill="none" d="M-1.16,2.18 L1.16,2.18 1.16,-2.18 -1.16,-2.18 " class="primitive"/>
    </g>
    <g transform="translate(94.17,60.44)">
      <path fill="none" d="M-1.16,2.18 L1.16,2.18 1.16,-2.18 -1.16,-2.18 " class="primitive"/>
    </g>
    <g transform="translate(95.91,50.64)">
      <path fill="none" d="M-2.9,3.27 L1.74,3.27 1.74,-3.27 -0.58,-3.27 " class="primitive"/>
    </g>
    <g transform="translate(96.49,21.22)">
      <path fill="none" d="M-1.16,4.36 L1.16,4.36 1.16,-4.36 -1.16,-4.36 " class="primitive"/>
    </g>
    <g transform="translate(97.66,76.24)">
      <path fill="none" d="M-4.65,3.81 L2.32,3.81 2.32,-3.81 -0,-3.81 " class="primitive"/>
    </g>
    <g transform="translate(98.24,55.54)">
      <path fill="none" d="M-2.9,4.9 L1.74,4.9 1.74,-4.9 -0.58,-4.9 " class="primitive"/>
    </g>
    <g transform="translate(98.24,27.75)">
      <path fill="none" d="M-2.9,6.54 L1.74,6.54 1.74,-6.54 -0.58,-6.54 " class="primitive"/>
    </g>
    <g transform="translate(99.4,80.33)">
      <path fill="none" d="M-6.39,4.09 L2.9,4.09 2.9,-4.09 0.58,-4.09 " class="primitive"/>
    </g>
    <g transform="translate(99.4,34.29)">
      <path fill="none" d="M-6.39,6.54 L2.9,6.54 2.9,-6.54 0.58,-6.54 " class="primitive"/>
    </g>
    <g transform="translate(101.14,84.55)">
      <path fill="none" d="M-8.13,4.22 L3.49,4.22 3.49,-4.22 1.16,-4.22 " class="primitive"/>
    </g>
    <g transform="translate(102.88,44.92)">
      <path fill="none" d="M-2.9,10.62 L1.74,10.62 1.74,-10.62 -0.58,-10.62 " class="primitive"/>
    </g>
    <g transform="translate(105.79,64.73)">
      <path fill="none" d="M-1.16,19.82 L1.16,19.82 1.16,-19.82 -1.16,-19.82 " class="primitive"/>
    </g>
  </g>
  <g clip-path="url(#img-adefe6b2-4)">
    <g id="img-adefe6b2-5">
      <g pointer-events="visible" stroke-width="0.3" fill="#000000" fill-opacity="0.000" stroke="#000000" stroke-opacity="0.000" class="guide background" id="img-adefe6b2-6">
        <g transform="translate(83.23,51.73)" id="img-adefe6b2-7">
          <path d="M-8.72,-39.23 L8.72,-39.23 8.72,39.23 -8.72,39.23  z" class="primitive"/>
        </g>
      </g>
      <g class="guide ygridlines xfixed" stroke-dasharray="0.5,0.5" stroke-width="0.2" stroke="#D0D0E0" id="img-adefe6b2-8">
        <g transform="translate(83.23,16.86)" id="img-adefe6b2-9">
          <path fill="none" d="M-8.72,0 L8.72,0 " class="primitive"/>
        </g>
        <g transform="translate(83.23,21.22)" id="img-adefe6b2-10">
          <path fill="none" d="M-8.72,0 L8.72,0 " class="primitive"/>
        </g>
        <g transform="translate(83.23,25.58)" id="img-adefe6b2-11">
          <path fill="none" d="M-8.72,0 L8.72,0 " class="primitive"/>
        </g>
        <g transform="translate(83.23,29.93)" id="img-adefe6b2-12">
          <path fill="none" d="M-8.72,0 L8.72,0 " class="primitive"/>
        </g>
        <g transform="translate(83.23,34.29)" id="img-adefe6b2-13">
          <path fill="none" d="M-8.72,0 L8.72,0 " class="primitive"/>
        </g>
        <g transform="translate(83.23,38.65)" id="img-adefe6b2-14">
          <path fill="none" d="M-8.72,0 L8.72,0 " class="primitive"/>
        </g>
        <g transform="translate(83.23,43.01)" id="img-adefe6b2-15">
          <path fill="none" d="M-8.72,0 L8.72,0 " class="primitive"/>
        </g>
        <g transform="translate(83.23,47.37)" id="img-adefe6b2-16">
          <path fill="none" d="M-8.72,0 L8.72,0 " class="primitive"/>
        </g>
        <g transform="translate(83.23,51.73)" id="img-adefe6b2-17">
          <path fill="none" d="M-8.72,0 L8.72,0 " class="primitive"/>
        </g>
        <g transform="translate(83.23,56.08)" id="img-adefe6b2-18">
          <path fill="none" d="M-8.72,0 L8.72,0 " class="primitive"/>
        </g>
        <g transform="translate(83.23,60.44)" id="img-adefe6b2-19">
          <path fill="none" d="M-8.72,0 L8.72,0 " class="primitive"/>
        </g>
        <g transform="translate(83.23,64.8)" id="img-adefe6b2-20">
          <path fill="none" d="M-8.72,0 L8.72,0 " class="primitive"/>
        </g>
        <g transform="translate(83.23,69.16)" id="img-adefe6b2-21">
          <path fill="none" d="M-8.72,0 L8.72,0 " class="primitive"/>
        </g>
        <g transform="translate(83.23,73.52)" id="img-adefe6b2-22">
          <path fill="none" d="M-8.72,0 L8.72,0 " class="primitive"/>
        </g>
        <g transform="translate(83.23,77.88)" id="img-adefe6b2-23">
          <path fill="none" d="M-8.72,0 L8.72,0 " class="primitive"/>
        </g>
        <g transform="translate(83.23,82.23)" id="img-adefe6b2-24">
          <path fill="none" d="M-8.72,0 L8.72,0 " class="primitive"/>
        </g>
        <g transform="translate(83.23,86.59)" id="img-adefe6b2-25">
          <path fill="none" d="M-8.72,0 L8.72,0 " class="primitive"/>
        </g>
      </g>
      <g class="guide xgridlines yfixed" stroke-dasharray="0.5,0.5" stroke-width="0.2" stroke="#D0D0E0" id="img-adefe6b2-26">
        <g transform="translate(78.88,51.73)" id="img-adefe6b2-27">
          <path fill="none" d="M0,-39.23 L0,39.23 " class="primitive"/>
        </g>
        <g transform="translate(83.23,51.73)" id="img-adefe6b2-28">
          <path fill="none" d="M0,-39.23 L0,39.23 " class="primitive"/>
        </g>
        <g transform="translate(87.59,51.73)" id="img-adefe6b2-29">
          <path fill="none" d="M0,-39.23 L0,39.23 " class="primitive"/>
        </g>
      </g>
      <g class="plotpanel" id="img-adefe6b2-30">
        <metadata>
          <boundingbox value="74.51769520247035mm 12.5mm 17.433600380979936mm 78.45120171440972mm"/>
          <unitbox value="0.5 0.5 4.0 18.0"/>
        </metadata>
        <g shape-rendering="crispEdges" class="geometry" stroke="#000000" stroke-opacity="0.000" id="img-adefe6b2-31">
          <g transform="translate(76.72,14.7)" id="img-adefe6b2-32" fill="#F1F700" fill-opacity="1">
            <path d="M-2.2,-2.2 L2.2,-2.2 2.2,2.2 -2.2,2.2  z" class="primitive"/>
          </g>
          <g transform="translate(76.72,19.06)" id="img-adefe6b2-33" fill="#FFF900" fill-opacity="1">
            <path d="M-2.2,-2.2 L2.2,-2.2 2.2,2.2 -2.2,2.2  z" class="primitive"/>
          </g>
          <g transform="translate(76.72,23.42)" id="img-adefe6b2-34" fill="#FFE700" fill-opacity="1">
            <path d="M-2.2,-2.2 L2.2,-2.2 2.2,2.2 -2.2,2.2  z" class="primitive"/>
          </g>
          <g transform="translate(76.72,27.78)" id="img-adefe6b2-35" fill="#008000" fill-opacity="1">
            <path d="M-2.2,-2.2 L2.2,-2.2 2.2,2.2 -2.2,2.2  z" class="primitive"/>
          </g>
          <g transform="translate(76.72,32.14)" id="img-adefe6b2-36" fill="#FF7700" fill-opacity="1">
            <path d="M-2.2,-2.2 L2.2,-2.2 2.2,2.2 -2.2,2.2  z" class="primitive"/>
          </g>
          <g transform="translate(76.72,36.5)" id="img-adefe6b2-37" fill="#FFF700" fill-opacity="1">
            <path d="M-2.2,-2.2 L2.2,-2.2 2.2,2.2 -2.2,2.2  z" class="primitive"/>
          </g>
          <g transform="translate(76.72,40.85)" id="img-adefe6b2-38" fill="#008000" fill-opacity="1">
            <path d="M-2.2,-2.2 L2.2,-2.2 2.2,2.2 -2.2,2.2  z" class="primitive"/>
          </g>
          <g transform="translate(76.72,45.21)" id="img-adefe6b2-39" fill="#FFF500" fill-opacity="1">
            <path d="M-2.2,-2.2 L2.2,-2.2 2.2,2.2 -2.2,2.2  z" class="primitive"/>
          </g>
          <g transform="translate(76.72,49.57)" id="img-adefe6b2-40" fill="#FF0000" fill-opacity="1">
            <path d="M-2.2,-2.2 L2.2,-2.2 2.2,2.2 -2.2,2.2  z" class="primitive"/>
          </g>
          <g transform="translate(76.72,53.93)" id="img-adefe6b2-41" fill="#198400" fill-opacity="1">
            <path d="M-2.2,-2.2 L2.2,-2.2 2.2,2.2 -2.2,2.2  z" class="primitive"/>
          </g>
          <g transform="translate(76.72,58.29)" id="img-adefe6b2-42" fill="#92BF00" fill-opacity="1">
            <path d="M-2.2,-2.2 L2.2,-2.2 2.2,2.2 -2.2,2.2  z" class="primitive"/>
          </g>
          <g transform="translate(76.72,62.65)" id="img-adefe6b2-43" fill="#A2C900" fill-opacity="1">
            <path d="M-2.2,-2.2 L2.2,-2.2 2.2,2.2 -2.2,2.2  z" class="primitive"/>
          </g>
          <g transform="translate(76.72,67.01)" id="img-adefe6b2-44" fill="#88BA00" fill-opacity="1">
            <path d="M-2.2,-2.2 L2.2,-2.2 2.2,2.2 -2.2,2.2  z" class="primitive"/>
          </g>
          <g transform="translate(76.72,71.36)" id="img-adefe6b2-45" fill="#BFDA00" fill-opacity="1">
            <path d="M-2.2,-2.2 L2.2,-2.2 2.2,2.2 -2.2,2.2  z" class="primitive"/>
          </g>
          <g transform="translate(76.72,75.72)" id="img-adefe6b2-46" fill="#008000" fill-opacity="1">
            <path d="M-2.2,-2.2 L2.2,-2.2 2.2,2.2 -2.2,2.2  z" class="primitive"/>
          </g>
          <g transform="translate(76.72,80.08)" id="img-adefe6b2-47" fill="#3A9000" fill-opacity="1">
            <path d="M-2.2,-2.2 L2.2,-2.2 2.2,2.2 -2.2,2.2  z" class="primitive"/>
          </g>
          <g transform="translate(76.72,84.44)" id="img-adefe6b2-48" fill="#228700" fill-opacity="1">
            <path d="M-2.2,-2.2 L2.2,-2.2 2.2,2.2 -2.2,2.2  z" class="primitive"/>
          </g>
          <g transform="translate(76.72,88.8)" id="img-adefe6b2-49" fill="#FF8800" fill-opacity="1">
            <path d="M-2.2,-2.2 L2.2,-2.2 2.2,2.2 -2.2,2.2  z" class="primitive"/>
          </g>
          <g transform="translate(81.08,14.7)" id="img-adefe6b2-50" fill="#008000" fill-opacity="1">
            <path d="M-2.2,-2.2 L2.2,-2.2 2.2,2.2 -2.2,2.2  z" class="primitive"/>
          </g>
          <g transform="translate(81.08,19.06)" id="img-adefe6b2-51" fill="#248800" fill-opacity="1">
            <path d="M-2.2,-2.2 L2.2,-2.2 2.2,2.2 -2.2,2.2  z" class="primitive"/>
          </g>
          <g transform="translate(81.08,23.42)" id="img-adefe6b2-52" fill="#FFBD00" fill-opacity="1">
            <path d="M-2.2,-2.2 L2.2,-2.2 2.2,2.2 -2.2,2.2  z" class="primitive"/>
          </g>
          <g transform="translate(81.08,27.78)" id="img-adefe6b2-53" fill="#F3F800" fill-opacity="1">
            <path d="M-2.2,-2.2 L2.2,-2.2 2.2,2.2 -2.2,2.2  z" class="primitive"/>
          </g>
          <g transform="translate(81.08,32.14)" id="img-adefe6b2-54" fill="#008000" fill-opacity="1">
            <path d="M-2.2,-2.2 L2.2,-2.2 2.2,2.2 -2.2,2.2  z" class="primitive"/>
          </g>
          <g transform="translate(81.08,36.5)" id="img-adefe6b2-55" fill="#078100" fill-opacity="1">
            <path d="M-2.2,-2.2 L2.2,-2.2 2.2,2.2 -2.2,2.2  z" class="primitive"/>
          </g>
          <g transform="translate(81.08,40.85)" id="img-adefe6b2-56" fill="#FFB600" fill-opacity="1">
            <path d="M-2.2,-2.2 L2.2,-2.2 2.2,2.2 -2.2,2.2  z" class="primitive"/>
          </g>
          <g transform="translate(81.08,45.21)" id="img-adefe6b2-57" fill="#F7FA00" fill-opacity="1">
            <path d="M-2.2,-2.2 L2.2,-2.2 2.2,2.2 -2.2,2.2  z" class="primitive"/>
          </g>
          <g transform="translate(81.08,49.57)" id="img-adefe6b2-58" fill="#008000" fill-opacity="1">
            <path d="M-2.2,-2.2 L2.2,-2.2 2.2,2.2 -2.2,2.2  z" class="primitive"/>
          </g>
          <g transform="translate(81.08,53.93)" id="img-adefe6b2-59" fill="#469600" fill-opacity="1">
            <path d="M-2.2,-2.2 L2.2,-2.2 2.2,2.2 -2.2,2.2  z" class="primitive"/>
          </g>
          <g transform="translate(81.08,58.29)" id="img-adefe6b2-60" fill="#FAFC00" fill-opacity="1">
            <path d="M-2.2,-2.2 L2.2,-2.2 2.2,2.2 -2.2,2.2  z" class="primitive"/>
          </g>
          <g transform="translate(81.08,62.65)" id="img-adefe6b2-61" fill="#008000" fill-opacity="1">
            <path d="M-2.2,-2.2 L2.2,-2.2 2.2,2.2 -2.2,2.2  z" class="primitive"/>
          </g>
          <g transform="translate(81.08,67.01)" id="img-adefe6b2-62" fill="#FFED00" fill-opacity="1">
            <path d="M-2.2,-2.2 L2.2,-2.2 2.2,2.2 -2.2,2.2  z" class="primitive"/>
          </g>
          <g transform="translate(81.08,71.36)" id="img-adefe6b2-63" fill="#FF0000" fill-opacity="1">
            <path d="M-2.2,-2.2 L2.2,-2.2 2.2,2.2 -2.2,2.2  z" class="primitive"/>
          </g>
          <g transform="translate(81.08,75.72)" id="img-adefe6b2-64" fill="#008000" fill-opacity="1">
            <path d="M-2.2,-2.2 L2.2,-2.2 2.2,2.2 -2.2,2.2  z" class="primitive"/>
          </g>
          <g transform="translate(81.08,80.08)" id="img-adefe6b2-65" fill="#008000" fill-opacity="1">
            <path d="M-2.2,-2.2 L2.2,-2.2 2.2,2.2 -2.2,2.2  z" class="primitive"/>
          </g>
          <g transform="translate(81.08,84.44)" id="img-adefe6b2-66" fill="#A2C900" fill-opacity="1">
            <path d="M-2.2,-2.2 L2.2,-2.2 2.2,2.2 -2.2,2.2  z" class="primitive"/>
          </g>
          <g transform="translate(81.08,88.8)" id="img-adefe6b2-67" fill="#FFE300" fill-opacity="1">
            <path d="M-2.2,-2.2 L2.2,-2.2 2.2,2.2 -2.2,2.2  z" class="primitive"/>
          </g>
          <g transform="translate(85.44,14.7)" id="img-adefe6b2-68" fill="#008000" fill-opacity="1">
            <path d="M-2.2,-2.2 L2.2,-2.2 2.2,2.2 -2.2,2.2  z" class="primitive"/>
          </g>
          <g transform="translate(85.44,19.06)" id="img-adefe6b2-69" fill="#84B800" fill-opacity="1">
            <path d="M-2.2,-2.2 L2.2,-2.2 2.2,2.2 -2.2,2.2  z" class="primitive"/>
          </g>
          <g transform="translate(85.44,23.42)" id="img-adefe6b2-70" fill="#308C00" fill-opacity="1">
            <path d="M-2.2,-2.2 L2.2,-2.2 2.2,2.2 -2.2,2.2  z" class="primitive"/>
          </g>
          <g transform="translate(85.44,27.78)" id="img-adefe6b2-71" fill="#008000" fill-opacity="1">
            <path d="M-2.2,-2.2 L2.2,-2.2 2.2,2.2 -2.2,2.2  z" class="primitive"/>
          </g>
          <g transform="translate(85.44,32.14)" id="img-adefe6b2-72" fill="#5DA200" fill-opacity="1">
            <path d="M-2.2,-2.2 L2.2,-2.2 2.2,2.2 -2.2,2.2  z" class="primitive"/>
          </g>
          <g transform="translate(85.44,36.5)" id="img-adefe6b2-73" fill="#66A600" fill-opacity="1">
            <path d="M-2.2,-2.2 L2.2,-2.2 2.2,2.2 -2.2,2.2  z" class="primitive"/>
          </g>
          <g transform="translate(85.44,40.85)" id="img-adefe6b2-74" fill="#9CC600" fill-opacity="1">
            <path d="M-2.2,-2.2 L2.2,-2.2 2.2,2.2 -2.2,2.2  z" class="primitive"/>
          </g>
          <g transform="translate(85.44,45.21)" id="img-adefe6b2-75" fill="#FFEA00" fill-opacity="1">
            <path d="M-2.2,-2.2 L2.2,-2.2 2.2,2.2 -2.2,2.2  z" class="primitive"/>
          </g>
          <g transform="translate(85.44,49.57)" id="img-adefe6b2-76" fill="#FDFE00" fill-opacity="1">
            <path d="M-2.2,-2.2 L2.2,-2.2 2.2,2.2 -2.2,2.2  z" class="primitive"/>
          </g>
          <g transform="translate(85.44,53.93)" id="img-adefe6b2-77" fill="#008000" fill-opacity="1">
            <path d="M-2.2,-2.2 L2.2,-2.2 2.2,2.2 -2.2,2.2  z" class="primitive"/>
          </g>
          <g transform="translate(85.44,58.29)" id="img-adefe6b2-78" fill="#ACCE00" fill-opacity="1">
            <path d="M-2.2,-2.2 L2.2,-2.2 2.2,2.2 -2.2,2.2  z" class="primitive"/>
          </g>
          <g transform="translate(85.44,62.65)" id="img-adefe6b2-79" fill="#FF0000" fill-opacity="1">
            <path d="M-2.2,-2.2 L2.2,-2.2 2.2,2.2 -2.2,2.2  z" class="primitive"/>
          </g>
          <g transform="translate(85.44,67.01)" id="img-adefe6b2-80" fill="#FFD000" fill-opacity="1">
            <path d="M-2.2,-2.2 L2.2,-2.2 2.2,2.2 -2.2,2.2  z" class="primitive"/>
          </g>
          <g transform="translate(85.44,71.36)" id="img-adefe6b2-81" fill="#008000" fill-opacity="1">
            <path d="M-2.2,-2.2 L2.2,-2.2 2.2,2.2 -2.2,2.2  z" class="primitive"/>
          </g>
          <g transform="translate(85.44,75.72)" id="img-adefe6b2-82" fill="#078100" fill-opacity="1">
            <path d="M-2.2,-2.2 L2.2,-2.2 2.2,2.2 -2.2,2.2  z" class="primitive"/>
          </g>
          <g transform="translate(85.44,80.08)" id="img-adefe6b2-83" fill="#C0DA00" fill-opacity="1">
            <path d="M-2.2,-2.2 L2.2,-2.2 2.2,2.2 -2.2,2.2  z" class="primitive"/>
          </g>
          <g transform="translate(85.44,84.44)" id="img-adefe6b2-84" fill="#5BA100" fill-opacity="1">
            <path d="M-2.2,-2.2 L2.2,-2.2 2.2,2.2 -2.2,2.2  z" class="primitive"/>
          </g>
          <g transform="translate(85.44,88.8)" id="img-adefe6b2-85" fill="#FFEC00" fill-opacity="1">
            <path d="M-2.2,-2.2 L2.2,-2.2 2.2,2.2 -2.2,2.2  z" class="primitive"/>
          </g>
          <g transform="translate(89.8,14.7)" id="img-adefe6b2-86" fill="#9BC500" fill-opacity="1">
            <path d="M-2.2,-2.2 L2.2,-2.2 2.2,2.2 -2.2,2.2  z" class="primitive"/>
          </g>
          <g transform="translate(89.8,19.06)" id="img-adefe6b2-87" fill="#FF8900" fill-opacity="1">
            <path d="M-2.2,-2.2 L2.2,-2.2 2.2,2.2 -2.2,2.2  z" class="primitive"/>
          </g>
          <g transform="translate(89.8,23.42)" id="img-adefe6b2-88" fill="#93C000" fill-opacity="1">
            <path d="M-2.2,-2.2 L2.2,-2.2 2.2,2.2 -2.2,2.2  z" class="primitive"/>
          </g>
          <g transform="translate(89.8,27.78)" id="img-adefe6b2-89" fill="#FF3800" fill-opacity="1">
            <path d="M-2.2,-2.2 L2.2,-2.2 2.2,2.2 -2.2,2.2  z" class="primitive"/>
          </g>
          <g transform="translate(89.8,32.14)" id="img-adefe6b2-90" fill="#008000" fill-opacity="1">
            <path d="M-2.2,-2.2 L2.2,-2.2 2.2,2.2 -2.2,2.2  z" class="primitive"/>
          </g>
          <g transform="translate(89.8,36.5)" id="img-adefe6b2-91" fill="#F5F900" fill-opacity="1">
            <path d="M-2.2,-2.2 L2.2,-2.2 2.2,2.2 -2.2,2.2  z" class="primitive"/>
          </g>
          <g transform="translate(89.8,40.85)" id="img-adefe6b2-92" fill="#008000" fill-opacity="1">
            <path d="M-2.2,-2.2 L2.2,-2.2 2.2,2.2 -2.2,2.2  z" class="primitive"/>
          </g>
          <g transform="translate(89.8,45.21)" id="img-adefe6b2-93" fill="#B8D500" fill-opacity="1">
            <path d="M-2.2,-2.2 L2.2,-2.2 2.2,2.2 -2.2,2.2  z" class="primitive"/>
          </g>
          <g transform="translate(89.8,49.57)" id="img-adefe6b2-94" fill="#FF6200" fill-opacity="1">
            <path d="M-2.2,-2.2 L2.2,-2.2 2.2,2.2 -2.2,2.2  z" class="primitive"/>
          </g>
          <g transform="translate(89.8,53.93)" id="img-adefe6b2-95" fill="#FF0000" fill-opacity="1">
            <path d="M-2.2,-2.2 L2.2,-2.2 2.2,2.2 -2.2,2.2  z" class="primitive"/>
          </g>
          <g transform="translate(89.8,58.29)" id="img-adefe6b2-96" fill="#91BF00" fill-opacity="1">
            <path d="M-2.2,-2.2 L2.2,-2.2 2.2,2.2 -2.2,2.2  z" class="primitive"/>
          </g>
          <g transform="translate(89.8,62.65)" id="img-adefe6b2-97" fill="#82B600" fill-opacity="1">
            <path d="M-2.2,-2.2 L2.2,-2.2 2.2,2.2 -2.2,2.2  z" class="primitive"/>
          </g>
          <g transform="translate(89.8,67.01)" id="img-adefe6b2-98" fill="#F0F600" fill-opacity="1">
            <path d="M-2.2,-2.2 L2.2,-2.2 2.2,2.2 -2.2,2.2  z" class="primitive"/>
          </g>
          <g transform="translate(89.8,71.36)" id="img-adefe6b2-99" fill="#ADCF00" fill-opacity="1">
            <path d="M-2.2,-2.2 L2.2,-2.2 2.2,2.2 -2.2,2.2  z" class="primitive"/>
          </g>
          <g transform="translate(89.8,75.72)" id="img-adefe6b2-100" fill="#FF3D00" fill-opacity="1">
            <path d="M-2.2,-2.2 L2.2,-2.2 2.2,2.2 -2.2,2.2  z" class="primitive"/>
          </g>
          <g transform="translate(89.8,80.08)" id="img-adefe6b2-101" fill="#FF5100" fill-opacity="1">
            <path d="M-2.2,-2.2 L2.2,-2.2 2.2,2.2 -2.2,2.2  z" class="primitive"/>
          </g>
          <g transform="translate(89.8,84.44)" id="img-adefe6b2-102" fill="#C1DB00" fill-opacity="1">
            <path d="M-2.2,-2.2 L2.2,-2.2 2.2,2.2 -2.2,2.2  z" class="primitive"/>
          </g>
          <g transform="translate(89.8,88.8)" id="img-adefe6b2-103" fill="#FF9600" fill-opacity="1">
            <path d="M-2.2,-2.2 L2.2,-2.2 2.2,2.2 -2.2,2.2  z" class="primitive"/>
          </g>
        </g>
      </g>
    </g>
  </g>
  <g class="guide ylabels" font-size="2.82" font-family="'PT Sans Caption','Helvetica Neue','Helvetica',sans-serif" fill="#6C606B" id="img-adefe6b2-104">
    <g transform="translate(73.52,14.68)" id="img-adefe6b2-105">
      <g class="primitive">
        <text text-anchor="end" dy="0.35em">Volcanic dike density A</text>
      </g>
    </g>
    <g transform="translate(73.52,19.04)" id="img-adefe6b2-106">
      <g class="primitive">
        <text text-anchor="end" dy="0.35em">State map fault density A</text>
      </g>
    </g>
    <g transform="translate(73.52,23.4)" id="img-adefe6b2-107">
      <g class="primitive">
        <text text-anchor="end" dy="0.35em">Silica geothermometer A</text>
      </g>
    </g>
    <g transform="translate(73.52,27.75)" id="img-adefe6b2-108">
      <g class="primitive">
        <text text-anchor="end" dy="0.35em">Quaternary fault density B</text>
      </g>
    </g>
    <g transform="translate(73.52,32.11)" id="img-adefe6b2-109">
      <g class="primitive">
        <text text-anchor="end" dy="0.35em">Precipitation B</text>
      </g>
    </g>
    <g transform="translate(73.52,36.47)" id="img-adefe6b2-110">
      <g class="primitive">
        <text text-anchor="end" dy="0.35em">Hydraulic gradient B</text>
      </g>
    </g>
    <g transform="translate(73.52,40.83)" id="img-adefe6b2-111">
      <g class="primitive">
        <text text-anchor="end" dy="0.35em">Depth to basement B</text>
      </g>
    </g>
    <g transform="translate(73.52,45.19)" id="img-adefe6b2-112">
      <g class="primitive">
        <text text-anchor="end" dy="0.35em">Magnetic intensity C</text>
      </g>
    </g>
    <g transform="translate(73.52,49.55)" id="img-adefe6b2-113">
      <g class="primitive">
        <text text-anchor="end" dy="0.35em">Drainage density C</text>
      </g>
    </g>
    <g transform="translate(73.52,53.9)" id="img-adefe6b2-114">
      <g class="primitive">
        <text text-anchor="end" dy="0.35em">Fault intersection density C</text>
      </g>
    </g>
    <g transform="translate(73.52,58.26)" id="img-adefe6b2-115">
      <g class="primitive">
        <text text-anchor="end" dy="0.35em">Heat flow C</text>
      </g>
    </g>
    <g transform="translate(73.52,62.62)" id="img-adefe6b2-116">
      <g class="primitive">
        <text text-anchor="end" dy="0.35em">Crustal thickness C</text>
      </g>
    </g>
    <g transform="translate(73.52,66.98)" id="img-adefe6b2-117">
      <g class="primitive">
        <text text-anchor="end" dy="0.35em">Boron concentration D</text>
      </g>
    </g>
    <g transform="translate(73.52,71.34)" id="img-adefe6b2-118">
      <g class="primitive">
        <text text-anchor="end" dy="0.35em">Gravity anomaly D</text>
      </g>
    </g>
    <g transform="translate(73.52,75.7)" id="img-adefe6b2-119">
      <g class="primitive">
        <text text-anchor="end" dy="0.35em">Seismicity D</text>
      </g>
    </g>
    <g transform="translate(73.52,80.06)" id="img-adefe6b2-120">
      <g class="primitive">
        <text text-anchor="end" dy="0.35em">Spring density D</text>
      </g>
    </g>
    <g transform="translate(73.52,84.41)" id="img-adefe6b2-121">
      <g class="primitive">
        <text text-anchor="end" dy="0.35em">Volcanic vent density D</text>
      </g>
    </g>
    <g transform="translate(73.52,88.77)" id="img-adefe6b2-122">
      <g class="primitive">
        <text text-anchor="end" dy="0.35em">Lithium concentration D</text>
      </g>
    </g>
  </g>
  <g stroke-width="0.11" stroke="#FFFFFF" id="img-adefe6b2-123">
    <g transform="translate(87.59,10.37)" id="img-adefe6b2-124">
      <path fill="none" d="M-2.18,1.07 L-2.18,-1.07 2.18,-1.07 2.18,1.07 " class="primitive"/>
    </g>
    <g transform="translate(84.32,8.76)" id="img-adefe6b2-125">
      <path fill="none" d="M-3.27,2.68 L-3.27,-1.61 3.27,-1.61 3.27,0.54 " class="primitive"/>
    </g>
    <g transform="translate(80.51,7.15)" id="img-adefe6b2-126">
      <path fill="none" d="M-3.81,4.29 L-3.81,-2.15 3.81,-2.15 3.81,0 " class="primitive"/>
    </g>
  </g>
</g>
<defs>
  <clipPath id="img-adefe6b2-4">
    <path d="M74.52,12.5 L91.95,12.5 91.95,90.95 74.52,90.95 " />
  </clipPath>
</defs>
</svg>
