<?xml version="1.0" encoding="UTF-8"?>
<svg xmlns="http://www.w3.org/2000/svg"
     xmlns:xlink="http://www.w3.org/1999/xlink"
     xmlns:gadfly="http://www.gadflyjl.org/ns"
     version="1.2"
     width="141.42mm" height="100mm" viewBox="0 0 141.42 100"
     stroke="none"
     fill="#000000"
     stroke-width="0.3"
     font-size="3.88"
>
<defs>
  <marker id="arrow" markerWidth="15" markerHeight="7" refX="5" refY="3.5" orient="auto" markerUnits="strokeWidth">
    <path d="M0,0 L15,3.5 L0,7 z" stroke="context-stroke" fill="context-stroke"/>
  </marker>
</defs>
<g class="plotroot" id="img-3853cb6b-1">
  <g class="guide xlabels" font-size="2.82" font-family="'PT Sans Caption','Helvetica Neue','Helvetica',sans-serif" fill="#6C606B" id="img-3853cb6b-2">
    <g transform="translate(68.54,91.95)">
      <g class="primitive">
        <text text-anchor="middle" dy="0.6em">A</text>
      </g>
    </g>
    <g transform="translate(72.76,91.95)">
      <g class="primitive">
        <text text-anchor="middle" dy="0.6em">B</text>
      </g>
    </g>
    <g transform="translate(76.98,91.95)">
      <g class="primitive">
        <text text-anchor="middle" dy="0.6em">C</text>
      </g>
    </g>
    <g transform="translate(81.2,91.95)">
      <g class="primitive">
        <text text-anchor="middle" dy="0.6em">D</text>
      </g>
    </g>
    <g transform="translate(85.42,91.95)">
      <g class="primitive">
        <text text-anchor="middle" dy="0.6em">E</text>
      </g>
    </g>
    <g transform="translate(89.64,91.95)">
      <g class="primitive">
        <text text-anchor="middle" dy="0.6em">F</text>
      </g>
    </g>
    <g transform="translate(93.86,91.95)">
      <g class="primitive">
        <text text-anchor="middle" dy="0.6em">G</text>
      </g>
    </g>
    <g transform="translate(98.08,91.95)">
      <g class="primitive">
        <text text-anchor="middle" dy="0.6em">H</text>
      </g>
    </g>
  </g>
  <g stroke-width="0.11" stroke="#FFFFFF" id="img-3853cb6b-3">
    <g transform="translate(102.41,65.63)">
      <path fill="none" d="M-1.16,2.11 L1.16,2.11 1.16,-2.11 -1.16,-2.11 " class="primitive"/>
    </g>
    <g transform="translate(102.41,19.22)">
      <path fill="none" d="M-1.16,2.11 L1.16,2.11 1.16,-2.11 -1.16,-2.11 " class="primitive"/>
    </g>
    <g transform="translate(102.41,36.1)">
      <path fill="none" d="M-1.16,2.11 L1.16,2.11 1.16,-2.11 -1.16,-2.11 " class="primitive"/>
    </g>
    <g transform="translate(102.41,82.51)">
      <path fill="none" d="M-1.16,2.11 L1.16,2.11 1.16,-2.11 -1.16,-2.11 " class="primitive"/>
    </g>
    <g transform="translate(102.41,48.76)">
      <path fill="none" d="M-1.16,2.11 L1.16,2.11 1.16,-2.11 -1.16,-2.11 " class="primitive"/>
    </g>
    <g transform="translate(104.15,22.38)">
      <path fill="none" d="M-2.9,3.16 L1.74,3.16 1.74,-3.16 -0.58,-3.16 " class="primitive"/>
    </g>
    <g transform="translate(102.41,74.07)">
      <path fill="none" d="M-1.16,2.11 L1.16,2.11 1.16,-2.11 -1.16,-2.11 " class="primitive"/>
    </g>
    <g transform="translate(102.41,57.2)">
      <path fill="none" d="M-1.16,2.11 L1.16,2.11 1.16,-2.11 -1.16,-2.11 " class="primitive"/>
    </g>
    <g transform="translate(104.15,39.26)">
      <path fill="none" d="M-2.9,3.16 L1.74,3.16 1.74,-3.16 -0.58,-3.16 " class="primitive"/>
    </g>
    <g transform="translate(106.47,44.01)">
      <path fill="none" d="M-2.9,4.75 L1.74,4.75 1.74,-4.75 -0.58,-4.75 " class="primitive"/>
    </g>
    <g transform="translate(104.73,78.29)">
      <path fill="none" d="M-1.16,4.22 L1.16,4.22 1.16,-4.22 -1.16,-4.22 " class="primitive"/>
    </g>
    <g transform="translate(105.89,26.08)">
      <path fill="none" d="M-4.65,3.69 L2.32,3.69 2.32,-3.69 0,-3.69 " class="primitive"/>
    </g>
    <g transform="translate(104.73,61.41)">
      <path fill="none" d="M-1.16,4.22 L1.16,4.22 1.16,-4.22 -1.16,-4.22 " class="primitive"/>
    </g>
    <g transform="translate(105.89,83.57)">
      <path fill="none" d="M-4.65,5.27 L2.32,5.27 2.32,-5.27 0,-5.27 " class="primitive"/>
    </g>
    <g transform="translate(109.38,35.04)">
      <path fill="none" d="M-1.16,8.97 L1.16,8.97 1.16,-8.97 -1.16,-8.97 " class="primitive"/>
    </g>
    <g transform="translate(110.54,48.23)">
      <path fill="none" d="M-4.65,13.19 L2.32,13.19 2.32,-13.19 0,-13.19 " class="primitive"/>
    </g>
    <g transform="translate(112.86,65.9)">
      <path fill="none" d="M-4.65,17.67 L2.32,17.67 2.32,-17.67 0,-17.67 " class="primitive"/>
    </g>
  </g>
  <g clip-path="url(#img-3853cb6b-4)">
    <g id="img-3853cb6b-5">
      <g pointer-events="visible" stroke-width="0.3" fill="#000000" fill-opacity="0.000" stroke="#000000" stroke-opacity="0.000" class="guide background" id="img-3853cb6b-6">
        <g transform="translate(83.31,52.98)" id="img-3853cb6b-7">
          <path d="M-16.88,-37.98 L16.88,-37.98 16.88,37.98 -16.88,37.98  z" class="primitive"/>
        </g>
      </g>
      <g class="guide ygridlines xfixed" stroke-dasharray="0.5,0.5" stroke-width="0.2" stroke="#D0D0E0" id="img-3853cb6b-8">
        <g transform="translate(83.31,19.22)" id="img-3853cb6b-9">
          <path fill="none" d="M-16.88,0 L16.88,0 " class="primitive"/>
        </g>
        <g transform="translate(83.31,23.44)" id="img-3853cb6b-10">
          <path fill="none" d="M-16.88,0 L16.88,0 " class="primitive"/>
        </g>
        <g transform="translate(83.31,27.66)" id="img-3853cb6b-11">
          <path fill="none" d="M-16.88,0 L16.88,0 " class="primitive"/>
        </g>
        <g transform="translate(83.31,31.88)" id="img-3853cb6b-12">
          <path fill="none" d="M-16.88,0 L16.88,0 " class="primitive"/>
        </g>
        <g transform="translate(83.31,36.1)" id="img-3853cb6b-13">
          <path fill="none" d="M-16.88,0 L16.88,0 " class="primitive"/>
        </g>
        <g transform="translate(83.31,40.32)" id="img-3853cb6b-14">
          <path fill="none" d="M-16.88,0 L16.88,0 " class="primitive"/>
        </g>
        <g transform="translate(83.31,44.54)" id="img-3853cb6b-15">
          <path fill="none" d="M-16.88,0 L16.88,0 " class="primitive"/>
        </g>
        <g transform="translate(83.31,48.76)" id="img-3853cb6b-16">
          <path fill="none" d="M-16.88,0 L16.88,0 " class="primitive"/>
        </g>
        <g transform="translate(83.31,52.98)" id="img-3853cb6b-17">
          <path fill="none" d="M-16.88,0 L16.88,0 " class="primitive"/>
        </g>
        <g transform="translate(83.31,57.2)" id="img-3853cb6b-18">
          <path fill="none" d="M-16.88,0 L16.88,0 " class="primitive"/>
        </g>
        <g transform="translate(83.31,61.41)" id="img-3853cb6b-19">
          <path fill="none" d="M-16.88,0 L16.88,0 " class="primitive"/>
        </g>
        <g transform="translate(83.31,65.63)" id="img-3853cb6b-20">
          <path fill="none" d="M-16.88,0 L16.88,0 " class="primitive"/>
        </g>
        <g transform="translate(83.31,69.85)" id="img-3853cb6b-21">
          <path fill="none" d="M-16.88,0 L16.88,0 " class="primitive"/>
        </g>
        <g transform="translate(83.31,74.07)" id="img-3853cb6b-22">
          <path fill="none" d="M-16.88,0 L16.88,0 " class="primitive"/>
        </g>
        <g transform="translate(83.31,78.29)" id="img-3853cb6b-23">
          <path fill="none" d="M-16.88,0 L16.88,0 " class="primitive"/>
        </g>
        <g transform="translate(83.31,82.51)" id="img-3853cb6b-24">
          <path fill="none" d="M-16.88,0 L16.88,0 " class="primitive"/>
        </g>
        <g transform="translate(83.31,86.73)" id="img-3853cb6b-25">
          <path fill="none" d="M-16.88,0 L16.88,0 " class="primitive"/>
        </g>
      </g>
      <g class="guide xgridlines yfixed" stroke-dasharray="0.5,0.5" stroke-width="0.2" stroke="#D0D0E0" id="img-3853cb6b-26">
        <g transform="translate(70.65,52.98)" id="img-3853cb6b-27">
          <path fill="none" d="M0,-37.98 L0,37.98 " class="primitive"/>
        </g>
        <g transform="translate(74.87,52.98)" id="img-3853cb6b-28">
          <path fill="none" d="M0,-37.98 L0,37.98 " class="primitive"/>
        </g>
        <g transform="translate(79.09,52.98)" id="img-3853cb6b-29">
          <path fill="none" d="M0,-37.98 L0,37.98 " class="primitive"/>
        </g>
        <g transform="translate(83.31,52.98)" id="img-3853cb6b-30">
          <path fill="none" d="M0,-37.98 L0,37.98 " class="primitive"/>
        </g>
        <g transform="translate(87.53,52.98)" id="img-3853cb6b-31">
          <path fill="none" d="M0,-37.98 L0,37.98 " class="primitive"/>
        </g>
        <g transform="translate(91.75,52.98)" id="img-3853cb6b-32">
          <path fill="none" d="M0,-37.98 L0,37.98 " class="primitive"/>
        </g>
        <g transform="translate(95.97,52.98)" id="img-3853cb6b-33">
          <path fill="none" d="M0,-37.98 L0,37.98 " class="primitive"/>
        </g>
      </g>
      <g class="plotpanel" id="img-3853cb6b-34">
        <metadata>
          <boundingbox value="66.43138139435885mm 15.0mm 33.756089650848764mm 75.95120171440972mm"/>
          <unitbox value="0.5 0.5 8.0 18.0"/>
        </metadata>
        <g shape-rendering="crispEdges" class="geometry" stroke="#000000" stroke-opacity="0.000" id="img-3853cb6b-35">
          <g transform="translate(68.57,17.13)" id="img-3853cb6b-36" fill="#FF0000" fill-opacity="1">
            <path d="M-2.13,-2.13 L2.13,-2.13 2.13,2.13 -2.13,2.13  z" class="primitive"/>
          </g>
          <g transform="translate(68.57,21.35)" id="img-3853cb6b-37" fill="#5FA300" fill-opacity="1">
            <path d="M-2.13,-2.13 L2.13,-2.13 2.13,2.13 -2.13,2.13  z" class="primitive"/>
          </g>
          <g transform="translate(68.57,25.57)" id="img-3853cb6b-38" fill="#FFB800" fill-opacity="1">
            <path d="M-2.13,-2.13 L2.13,-2.13 2.13,2.13 -2.13,2.13  z" class="primitive"/>
          </g>
          <g transform="translate(68.57,29.79)" id="img-3853cb6b-39" fill="#7FB400" fill-opacity="1">
            <path d="M-2.13,-2.13 L2.13,-2.13 2.13,2.13 -2.13,2.13  z" class="primitive"/>
          </g>
          <g transform="translate(68.57,34.01)" id="img-3853cb6b-40" fill="#FFA800" fill-opacity="1">
            <path d="M-2.13,-2.13 L2.13,-2.13 2.13,2.13 -2.13,2.13  z" class="primitive"/>
          </g>
          <g transform="translate(68.57,38.23)" id="img-3853cb6b-41" fill="#008000" fill-opacity="1">
            <path d="M-2.13,-2.13 L2.13,-2.13 2.13,2.13 -2.13,2.13  z" class="primitive"/>
          </g>
          <g transform="translate(68.57,42.45)" id="img-3853cb6b-42" fill="#8FBE00" fill-opacity="1">
            <path d="M-2.13,-2.13 L2.13,-2.13 2.13,2.13 -2.13,2.13  z" class="primitive"/>
          </g>
          <g transform="translate(68.57,46.67)" id="img-3853cb6b-43" fill="#008000" fill-opacity="1">
            <path d="M-2.13,-2.13 L2.13,-2.13 2.13,2.13 -2.13,2.13  z" class="primitive"/>
          </g>
          <g transform="translate(68.57,50.89)" id="img-3853cb6b-44" fill="#C2DB00" fill-opacity="1">
            <path d="M-2.13,-2.13 L2.13,-2.13 2.13,2.13 -2.13,2.13  z" class="primitive"/>
          </g>
          <g transform="translate(68.57,55.11)" id="img-3853cb6b-45" fill="#A4CA00" fill-opacity="1">
            <path d="M-2.13,-2.13 L2.13,-2.13 2.13,2.13 -2.13,2.13  z" class="primitive"/>
          </g>
          <g transform="translate(68.57,59.33)" id="img-3853cb6b-46" fill="#008000" fill-opacity="1">
            <path d="M-2.13,-2.13 L2.13,-2.13 2.13,2.13 -2.13,2.13  z" class="primitive"/>
          </g>
          <g transform="translate(68.57,63.55)" id="img-3853cb6b-47" fill="#008000" fill-opacity="1">
            <path d="M-2.13,-2.13 L2.13,-2.13 2.13,2.13 -2.13,2.13  z" class="primitive"/>
          </g>
          <g transform="translate(68.57,67.77)" id="img-3853cb6b-48" fill="#FFD600" fill-opacity="1">
            <path d="M-2.13,-2.13 L2.13,-2.13 2.13,2.13 -2.13,2.13  z" class="primitive"/>
          </g>
          <g transform="translate(68.57,71.99)" id="img-3853cb6b-49" fill="#008000" fill-opacity="1">
            <path d="M-2.13,-2.13 L2.13,-2.13 2.13,2.13 -2.13,2.13  z" class="primitive"/>
          </g>
          <g transform="translate(68.57,76.21)" id="img-3853cb6b-50" fill="#6EAB00" fill-opacity="1">
            <path d="M-2.13,-2.13 L2.13,-2.13 2.13,2.13 -2.13,2.13  z" class="primitive"/>
          </g>
          <g transform="translate(68.57,80.43)" id="img-3853cb6b-51" fill="#008000" fill-opacity="1">
            <path d="M-2.13,-2.13 L2.13,-2.13 2.13,2.13 -2.13,2.13  z" class="primitive"/>
          </g>
          <g transform="translate(68.57,84.65)" id="img-3853cb6b-52" fill="#008000" fill-opacity="1">
            <path d="M-2.13,-2.13 L2.13,-2.13 2.13,2.13 -2.13,2.13  z" class="primitive"/>
          </g>
          <g transform="translate(68.57,88.87)" id="img-3853cb6b-53" fill="#5BA100" fill-opacity="1">
            <path d="M-2.13,-2.13 L2.13,-2.13 2.13,2.13 -2.13,2.13  z" class="primitive"/>
          </g>
          <g transform="translate(72.79,17.13)" id="img-3853cb6b-54" fill="#D3E500" fill-opacity="1">
            <path d="M-2.13,-2.13 L2.13,-2.13 2.13,2.13 -2.13,2.13  z" class="primitive"/>
          </g>
          <g transform="translate(72.79,21.35)" id="img-3853cb6b-55" fill="#008000" fill-opacity="1">
            <path d="M-2.13,-2.13 L2.13,-2.13 2.13,2.13 -2.13,2.13  z" class="primitive"/>
          </g>
          <g transform="translate(72.79,25.57)" id="img-3853cb6b-56" fill="#FFDD00" fill-opacity="1">
            <path d="M-2.13,-2.13 L2.13,-2.13 2.13,2.13 -2.13,2.13  z" class="primitive"/>
          </g>
          <g transform="translate(72.79,29.79)" id="img-3853cb6b-57" fill="#FF0000" fill-opacity="1">
            <path d="M-2.13,-2.13 L2.13,-2.13 2.13,2.13 -2.13,2.13  z" class="primitive"/>
          </g>
          <g transform="translate(72.79,34.01)" id="img-3853cb6b-58" fill="#008000" fill-opacity="1">
            <path d="M-2.13,-2.13 L2.13,-2.13 2.13,2.13 -2.13,2.13  z" class="primitive"/>
          </g>
          <g transform="translate(72.79,38.23)" id="img-3853cb6b-59" fill="#429400" fill-opacity="1">
            <path d="M-2.13,-2.13 L2.13,-2.13 2.13,2.13 -2.13,2.13  z" class="primitive"/>
          </g>
          <g transform="translate(72.79,42.45)" id="img-3853cb6b-60" fill="#FFE300" fill-opacity="1">
            <path d="M-2.13,-2.13 L2.13,-2.13 2.13,2.13 -2.13,2.13  z" class="primitive"/>
          </g>
          <g transform="translate(72.79,46.67)" id="img-3853cb6b-61" fill="#008000" fill-opacity="1">
            <path d="M-2.13,-2.13 L2.13,-2.13 2.13,2.13 -2.13,2.13  z" class="primitive"/>
          </g>
          <g transform="translate(72.79,50.89)" id="img-3853cb6b-62" fill="#008000" fill-opacity="1">
            <path d="M-2.13,-2.13 L2.13,-2.13 2.13,2.13 -2.13,2.13  z" class="primitive"/>
          </g>
          <g transform="translate(72.79,55.11)" id="img-3853cb6b-63" fill="#008000" fill-opacity="1">
            <path d="M-2.13,-2.13 L2.13,-2.13 2.13,2.13 -2.13,2.13  z" class="primitive"/>
          </g>
          <g transform="translate(72.79,59.33)" id="img-3853cb6b-64" fill="#378F00" fill-opacity="1">
            <path d="M-2.13,-2.13 L2.13,-2.13 2.13,2.13 -2.13,2.13  z" class="primitive"/>
          </g>
          <g transform="translate(72.79,63.55)" id="img-3853cb6b-65" fill="#A4CA00" fill-opacity="1">
            <path d="M-2.13,-2.13 L2.13,-2.13 2.13,2.13 -2.13,2.13  z" class="primitive"/>
          </g>
          <g transform="translate(72.79,67.77)" id="img-3853cb6b-66" fill="#008000" fill-opacity="1">
            <path d="M-2.13,-2.13 L2.13,-2.13 2.13,2.13 -2.13,2.13  z" class="primitive"/>
          </g>
          <g transform="translate(72.79,71.99)" id="img-3853cb6b-67" fill="#98C300" fill-opacity="1">
            <path d="M-2.13,-2.13 L2.13,-2.13 2.13,2.13 -2.13,2.13  z" class="primitive"/>
          </g>
          <g transform="translate(72.79,76.21)" id="img-3853cb6b-68" fill="#97C200" fill-opacity="1">
            <path d="M-2.13,-2.13 L2.13,-2.13 2.13,2.13 -2.13,2.13  z" class="primitive"/>
          </g>
          <g transform="translate(72.79,80.43)" id="img-3853cb6b-69" fill="#008000" fill-opacity="1">
            <path d="M-2.13,-2.13 L2.13,-2.13 2.13,2.13 -2.13,2.13  z" class="primitive"/>
          </g>
          <g transform="translate(72.79,84.65)" id="img-3853cb6b-70" fill="#61A400" fill-opacity="1">
            <path d="M-2.13,-2.13 L2.13,-2.13 2.13,2.13 -2.13,2.13  z" class="primitive"/>
          </g>
          <g transform="translate(72.79,88.87)" id="img-3853cb6b-71" fill="#078100" fill-opacity="1">
            <path d="M-2.13,-2.13 L2.13,-2.13 2.13,2.13 -2.13,2.13  z" class="primitive"/>
          </g>
          <g transform="translate(77.01,17.13)" id="img-3853cb6b-72" fill="#FF0000" fill-opacity="1">
            <path d="M-2.13,-2.13 L2.13,-2.13 2.13,2.13 -2.13,2.13  z" class="primitive"/>
          </g>
          <g transform="translate(77.01,21.35)" id="img-3853cb6b-73" fill="#008000" fill-opacity="1">
            <path d="M-2.13,-2.13 L2.13,-2.13 2.13,2.13 -2.13,2.13  z" class="primitive"/>
          </g>
          <g transform="translate(77.01,25.57)" id="img-3853cb6b-74" fill="#008000" fill-opacity="1">
            <path d="M-2.13,-2.13 L2.13,-2.13 2.13,2.13 -2.13,2.13  z" class="primitive"/>
          </g>
          <g transform="translate(77.01,29.79)" id="img-3853cb6b-75" fill="#89BB00" fill-opacity="1">
            <path d="M-2.13,-2.13 L2.13,-2.13 2.13,2.13 -2.13,2.13  z" class="primitive"/>
          </g>
          <g transform="translate(77.01,34.01)" id="img-3853cb6b-76" fill="#008000" fill-opacity="1">
            <path d="M-2.13,-2.13 L2.13,-2.13 2.13,2.13 -2.13,2.13  z" class="primitive"/>
          </g>
          <g transform="translate(77.01,38.23)" id="img-3853cb6b-77" fill="#FF6400" fill-opacity="1">
            <path d="M-2.13,-2.13 L2.13,-2.13 2.13,2.13 -2.13,2.13  z" class="primitive"/>
          </g>
          <g transform="translate(77.01,42.45)" id="img-3853cb6b-78" fill="#A1C800" fill-opacity="1">
            <path d="M-2.13,-2.13 L2.13,-2.13 2.13,2.13 -2.13,2.13  z" class="primitive"/>
          </g>
          <g transform="translate(77.01,46.67)" id="img-3853cb6b-79" fill="#008000" fill-opacity="1">
            <path d="M-2.13,-2.13 L2.13,-2.13 2.13,2.13 -2.13,2.13  z" class="primitive"/>
          </g>
          <g transform="translate(77.01,50.89)" id="img-3853cb6b-80" fill="#368F00" fill-opacity="1">
            <path d="M-2.13,-2.13 L2.13,-2.13 2.13,2.13 -2.13,2.13  z" class="primitive"/>
          </g>
          <g transform="translate(77.01,55.11)" id="img-3853cb6b-81" fill="#FF6C00" fill-opacity="1">
            <path d="M-2.13,-2.13 L2.13,-2.13 2.13,2.13 -2.13,2.13  z" class="primitive"/>
          </g>
          <g transform="translate(77.01,59.33)" id="img-3853cb6b-82" fill="#89BA00" fill-opacity="1">
            <path d="M-2.13,-2.13 L2.13,-2.13 2.13,2.13 -2.13,2.13  z" class="primitive"/>
          </g>
          <g transform="translate(77.01,63.55)" id="img-3853cb6b-83" fill="#2F8C00" fill-opacity="1">
            <path d="M-2.13,-2.13 L2.13,-2.13 2.13,2.13 -2.13,2.13  z" class="primitive"/>
          </g>
          <g transform="translate(77.01,67.77)" id="img-3853cb6b-84" fill="#008000" fill-opacity="1">
            <path d="M-2.13,-2.13 L2.13,-2.13 2.13,2.13 -2.13,2.13  z" class="primitive"/>
          </g>
          <g transform="translate(77.01,71.99)" id="img-3853cb6b-85" fill="#008000" fill-opacity="1">
            <path d="M-2.13,-2.13 L2.13,-2.13 2.13,2.13 -2.13,2.13  z" class="primitive"/>
          </g>
          <g transform="translate(77.01,76.21)" id="img-3853cb6b-86" fill="#99C300" fill-opacity="1">
            <path d="M-2.13,-2.13 L2.13,-2.13 2.13,2.13 -2.13,2.13  z" class="primitive"/>
          </g>
          <g transform="translate(77.01,80.43)" id="img-3853cb6b-87" fill="#008000" fill-opacity="1">
            <path d="M-2.13,-2.13 L2.13,-2.13 2.13,2.13 -2.13,2.13  z" class="primitive"/>
          </g>
          <g transform="translate(77.01,84.65)" id="img-3853cb6b-88" fill="#549D00" fill-opacity="1">
            <path d="M-2.13,-2.13 L2.13,-2.13 2.13,2.13 -2.13,2.13  z" class="primitive"/>
          </g>
          <g transform="translate(77.01,88.87)" id="img-3853cb6b-89" fill="#FF9F00" fill-opacity="1">
            <path d="M-2.13,-2.13 L2.13,-2.13 2.13,2.13 -2.13,2.13  z" class="primitive"/>
          </g>
          <g transform="translate(81.22,17.13)" id="img-3853cb6b-90" fill="#008000" fill-opacity="1">
            <path d="M-2.13,-2.13 L2.13,-2.13 2.13,2.13 -2.13,2.13  z" class="primitive"/>
          </g>
          <g transform="translate(81.22,21.35)" id="img-3853cb6b-91" fill="#008000" fill-opacity="1">
            <path d="M-2.13,-2.13 L2.13,-2.13 2.13,2.13 -2.13,2.13  z" class="primitive"/>
          </g>
          <g transform="translate(81.22,25.57)" id="img-3853cb6b-92" fill="#008000" fill-opacity="1">
            <path d="M-2.13,-2.13 L2.13,-2.13 2.13,2.13 -2.13,2.13  z" class="primitive"/>
          </g>
          <g transform="translate(81.22,29.79)" id="img-3853cb6b-93" fill="#008000" fill-opacity="1">
            <path d="M-2.13,-2.13 L2.13,-2.13 2.13,2.13 -2.13,2.13  z" class="primitive"/>
          </g>
          <g transform="translate(81.22,34.01)" id="img-3853cb6b-94" fill="#008000" fill-opacity="1">
            <path d="M-2.13,-2.13 L2.13,-2.13 2.13,2.13 -2.13,2.13  z" class="primitive"/>
          </g>
          <g transform="translate(81.22,38.23)" id="img-3853cb6b-95" fill="#008000" fill-opacity="1">
            <path d="M-2.13,-2.13 L2.13,-2.13 2.13,2.13 -2.13,2.13  z" class="primitive"/>
          </g>
          <g transform="translate(81.22,42.45)" id="img-3853cb6b-96" fill="#2F8C00" fill-opacity="1">
            <path d="M-2.13,-2.13 L2.13,-2.13 2.13,2.13 -2.13,2.13  z" class="primitive"/>
          </g>
          <g transform="translate(81.22,46.67)" id="img-3853cb6b-97" fill="#008000" fill-opacity="1">
            <path d="M-2.13,-2.13 L2.13,-2.13 2.13,2.13 -2.13,2.13  z" class="primitive"/>
          </g>
          <g transform="translate(81.22,50.89)" id="img-3853cb6b-98" fill="#FF0000" fill-opacity="1">
            <path d="M-2.13,-2.13 L2.13,-2.13 2.13,2.13 -2.13,2.13  z" class="primitive"/>
          </g>
          <g transform="translate(81.22,55.11)" id="img-3853cb6b-99" fill="#008000" fill-opacity="1">
            <path d="M-2.13,-2.13 L2.13,-2.13 2.13,2.13 -2.13,2.13  z" class="primitive"/>
          </g>
          <g transform="translate(81.22,59.33)" id="img-3853cb6b-100" fill="#008000" fill-opacity="1">
            <path d="M-2.13,-2.13 L2.13,-2.13 2.13,2.13 -2.13,2.13  z" class="primitive"/>
          </g>
          <g transform="translate(81.22,63.55)" id="img-3853cb6b-101" fill="#008000" fill-opacity="1">
            <path d="M-2.13,-2.13 L2.13,-2.13 2.13,2.13 -2.13,2.13  z" class="primitive"/>
          </g>
          <g transform="translate(81.22,67.77)" id="img-3853cb6b-102" fill="#178400" fill-opacity="1">
            <path d="M-2.13,-2.13 L2.13,-2.13 2.13,2.13 -2.13,2.13  z" class="primitive"/>
          </g>
          <g transform="translate(81.22,71.99)" id="img-3853cb6b-103" fill="#4E9A00" fill-opacity="1">
            <path d="M-2.13,-2.13 L2.13,-2.13 2.13,2.13 -2.13,2.13  z" class="primitive"/>
          </g>
          <g transform="translate(81.22,76.21)" id="img-3853cb6b-104" fill="#008000" fill-opacity="1">
            <path d="M-2.13,-2.13 L2.13,-2.13 2.13,2.13 -2.13,2.13  z" class="primitive"/>
          </g>
          <g transform="translate(81.22,80.43)" id="img-3853cb6b-105" fill="#008000" fill-opacity="1">
            <path d="M-2.13,-2.13 L2.13,-2.13 2.13,2.13 -2.13,2.13  z" class="primitive"/>
          </g>
          <g transform="translate(81.22,84.65)" id="img-3853cb6b-106" fill="#008000" fill-opacity="1">
            <path d="M-2.13,-2.13 L2.13,-2.13 2.13,2.13 -2.13,2.13  z" class="primitive"/>
          </g>
          <g transform="translate(81.22,88.87)" id="img-3853cb6b-107" fill="#088100" fill-opacity="1">
            <path d="M-2.13,-2.13 L2.13,-2.13 2.13,2.13 -2.13,2.13  z" class="primitive"/>
          </g>
          <g transform="translate(85.44,17.13)" id="img-3853cb6b-108" fill="#008000" fill-opacity="1">
            <path d="M-2.13,-2.13 L2.13,-2.13 2.13,2.13 -2.13,2.13  z" class="primitive"/>
          </g>
          <g transform="translate(85.44,21.35)" id="img-3853cb6b-109" fill="#008000" fill-opacity="1">
            <path d="M-2.13,-2.13 L2.13,-2.13 2.13,2.13 -2.13,2.13  z" class="primitive"/>
          </g>
          <g transform="translate(85.44,25.57)" id="img-3853cb6b-110" fill="#C7DF00" fill-opacity="1">
            <path d="M-2.13,-2.13 L2.13,-2.13 2.13,2.13 -2.13,2.13  z" class="primitive"/>
          </g>
          <g transform="translate(85.44,29.79)" id="img-3853cb6b-111" fill="#93C000" fill-opacity="1">
            <path d="M-2.13,-2.13 L2.13,-2.13 2.13,2.13 -2.13,2.13  z" class="primitive"/>
          </g>
          <g transform="translate(85.44,34.01)" id="img-3853cb6b-112" fill="#6FAB00" fill-opacity="1">
            <path d="M-2.13,-2.13 L2.13,-2.13 2.13,2.13 -2.13,2.13  z" class="primitive"/>
          </g>
          <g transform="translate(85.44,38.23)" id="img-3853cb6b-113" fill="#A8CC00" fill-opacity="1">
            <path d="M-2.13,-2.13 L2.13,-2.13 2.13,2.13 -2.13,2.13  z" class="primitive"/>
          </g>
          <g transform="translate(85.44,42.45)" id="img-3853cb6b-114" fill="#008000" fill-opacity="1">
            <path d="M-2.13,-2.13 L2.13,-2.13 2.13,2.13 -2.13,2.13  z" class="primitive"/>
          </g>
          <g transform="translate(85.44,46.67)" id="img-3853cb6b-115" fill="#008000" fill-opacity="1">
            <path d="M-2.13,-2.13 L2.13,-2.13 2.13,2.13 -2.13,2.13  z" class="primitive"/>
          </g>
          <g transform="translate(85.44,50.89)" id="img-3853cb6b-116" fill="#008000" fill-opacity="1">
            <path d="M-2.13,-2.13 L2.13,-2.13 2.13,2.13 -2.13,2.13  z" class="primitive"/>
          </g>
          <g transform="translate(85.44,55.11)" id="img-3853cb6b-117" fill="#008000" fill-opacity="1">
            <path d="M-2.13,-2.13 L2.13,-2.13 2.13,2.13 -2.13,2.13  z" class="primitive"/>
          </g>
          <g transform="translate(85.44,59.33)" id="img-3853cb6b-118" fill="#FF0000" fill-opacity="1">
            <path d="M-2.13,-2.13 L2.13,-2.13 2.13,2.13 -2.13,2.13  z" class="primitive"/>
          </g>
          <g transform="translate(85.44,63.55)" id="img-3853cb6b-119" fill="#008000" fill-opacity="1">
            <path d="M-2.13,-2.13 L2.13,-2.13 2.13,2.13 -2.13,2.13  z" class="primitive"/>
          </g>
          <g transform="translate(85.44,67.77)" id="img-3853cb6b-120" fill="#238800" fill-opacity="1">
            <path d="M-2.13,-2.13 L2.13,-2.13 2.13,2.13 -2.13,2.13  z" class="primitive"/>
          </g>
          <g transform="translate(85.44,71.99)" id="img-3853cb6b-121" fill="#298A00" fill-opacity="1">
            <path d="M-2.13,-2.13 L2.13,-2.13 2.13,2.13 -2.13,2.13  z" class="primitive"/>
          </g>
          <g transform="translate(85.44,76.21)" id="img-3853cb6b-122" fill="#469600" fill-opacity="1">
            <path d="M-2.13,-2.13 L2.13,-2.13 2.13,2.13 -2.13,2.13  z" class="primitive"/>
          </g>
          <g transform="translate(85.44,80.43)" id="img-3853cb6b-123" fill="#008000" fill-opacity="1">
            <path d="M-2.13,-2.13 L2.13,-2.13 2.13,2.13 -2.13,2.13  z" class="primitive"/>
          </g>
          <g transform="translate(85.44,84.65)" id="img-3853cb6b-124" fill="#3E9200" fill-opacity="1">
            <path d="M-2.13,-2.13 L2.13,-2.13 2.13,2.13 -2.13,2.13  z" class="primitive"/>
          </g>
          <g transform="translate(85.44,88.87)" id="img-3853cb6b-125" fill="#FF3700" fill-opacity="1">
            <path d="M-2.13,-2.13 L2.13,-2.13 2.13,2.13 -2.13,2.13  z" class="primitive"/>
          </g>
          <g transform="translate(89.66,17.13)" id="img-3853cb6b-126" fill="#008000" fill-opacity="1">
            <path d="M-2.13,-2.13 L2.13,-2.13 2.13,2.13 -2.13,2.13  z" class="primitive"/>
          </g>
          <g transform="translate(89.66,21.35)" id="img-3853cb6b-127" fill="#008000" fill-opacity="1">
            <path d="M-2.13,-2.13 L2.13,-2.13 2.13,2.13 -2.13,2.13  z" class="primitive"/>
          </g>
          <g transform="translate(89.66,25.57)" id="img-3853cb6b-128" fill="#E7F100" fill-opacity="1">
            <path d="M-2.13,-2.13 L2.13,-2.13 2.13,2.13 -2.13,2.13  z" class="primitive"/>
          </g>
          <g transform="translate(89.66,29.79)" id="img-3853cb6b-129" fill="#008000" fill-opacity="1">
            <path d="M-2.13,-2.13 L2.13,-2.13 2.13,2.13 -2.13,2.13  z" class="primitive"/>
          </g>
          <g transform="translate(89.66,34.01)" id="img-3853cb6b-130" fill="#008000" fill-opacity="1">
            <path d="M-2.13,-2.13 L2.13,-2.13 2.13,2.13 -2.13,2.13  z" class="primitive"/>
          </g>
          <g transform="translate(89.66,38.23)" id="img-3853cb6b-131" fill="#008000" fill-opacity="1">
            <path d="M-2.13,-2.13 L2.13,-2.13 2.13,2.13 -2.13,2.13  z" class="primitive"/>
          </g>
          <g transform="translate(89.66,42.45)" id="img-3853cb6b-132" fill="#EAF300" fill-opacity="1">
            <path d="M-2.13,-2.13 L2.13,-2.13 2.13,2.13 -2.13,2.13  z" class="primitive"/>
          </g>
          <g transform="translate(89.66,46.67)" id="img-3853cb6b-133" fill="#148300" fill-opacity="1">
            <path d="M-2.13,-2.13 L2.13,-2.13 2.13,2.13 -2.13,2.13  z" class="primitive"/>
          </g>
          <g transform="translate(89.66,50.89)" id="img-3853cb6b-134" fill="#008000" fill-opacity="1">
            <path d="M-2.13,-2.13 L2.13,-2.13 2.13,2.13 -2.13,2.13  z" class="primitive"/>
          </g>
          <g transform="translate(89.66,55.11)" id="img-3853cb6b-135" fill="#FFE400" fill-opacity="1">
            <path d="M-2.13,-2.13 L2.13,-2.13 2.13,2.13 -2.13,2.13  z" class="primitive"/>
          </g>
          <g transform="translate(89.66,59.33)" id="img-3853cb6b-136" fill="#2C8B00" fill-opacity="1">
            <path d="M-2.13,-2.13 L2.13,-2.13 2.13,2.13 -2.13,2.13  z" class="primitive"/>
          </g>
          <g transform="translate(89.66,63.55)" id="img-3853cb6b-137" fill="#FFB500" fill-opacity="1">
            <path d="M-2.13,-2.13 L2.13,-2.13 2.13,2.13 -2.13,2.13  z" class="primitive"/>
          </g>
          <g transform="translate(89.66,67.77)" id="img-3853cb6b-138" fill="#FF0000" fill-opacity="1">
            <path d="M-2.13,-2.13 L2.13,-2.13 2.13,2.13 -2.13,2.13  z" class="primitive"/>
          </g>
          <g transform="translate(89.66,71.99)" id="img-3853cb6b-139" fill="#008000" fill-opacity="1">
            <path d="M-2.13,-2.13 L2.13,-2.13 2.13,2.13 -2.13,2.13  z" class="primitive"/>
          </g>
          <g transform="translate(89.66,76.21)" id="img-3853cb6b-140" fill="#FFF500" fill-opacity="1">
            <path d="M-2.13,-2.13 L2.13,-2.13 2.13,2.13 -2.13,2.13  z" class="primitive"/>
          </g>
          <g transform="translate(89.66,80.43)" id="img-3853cb6b-141" fill="#5EA200" fill-opacity="1">
            <path d="M-2.13,-2.13 L2.13,-2.13 2.13,2.13 -2.13,2.13  z" class="primitive"/>
          </g>
          <g transform="translate(89.66,84.65)" id="img-3853cb6b-142" fill="#539C00" fill-opacity="1">
            <path d="M-2.13,-2.13 L2.13,-2.13 2.13,2.13 -2.13,2.13  z" class="primitive"/>
          </g>
          <g transform="translate(89.66,88.87)" id="img-3853cb6b-143" fill="#008000" fill-opacity="1">
            <path d="M-2.13,-2.13 L2.13,-2.13 2.13,2.13 -2.13,2.13  z" class="primitive"/>
          </g>
          <g transform="translate(93.88,17.13)" id="img-3853cb6b-144" fill="#F3F800" fill-opacity="1">
            <path d="M-2.13,-2.13 L2.13,-2.13 2.13,2.13 -2.13,2.13  z" class="primitive"/>
          </g>
          <g transform="translate(93.88,21.35)" id="img-3853cb6b-145" fill="#A2C900" fill-opacity="1">
            <path d="M-2.13,-2.13 L2.13,-2.13 2.13,2.13 -2.13,2.13  z" class="primitive"/>
          </g>
          <g transform="translate(93.88,25.57)" id="img-3853cb6b-146" fill="#258800" fill-opacity="1">
            <path d="M-2.13,-2.13 L2.13,-2.13 2.13,2.13 -2.13,2.13  z" class="primitive"/>
          </g>
          <g transform="translate(93.88,29.79)" id="img-3853cb6b-147" fill="#72AD00" fill-opacity="1">
            <path d="M-2.13,-2.13 L2.13,-2.13 2.13,2.13 -2.13,2.13  z" class="primitive"/>
          </g>
          <g transform="translate(93.88,34.01)" id="img-3853cb6b-148" fill="#008000" fill-opacity="1">
            <path d="M-2.13,-2.13 L2.13,-2.13 2.13,2.13 -2.13,2.13  z" class="primitive"/>
          </g>
          <g transform="translate(93.88,38.23)" id="img-3853cb6b-149" fill="#FFC300" fill-opacity="1">
            <path d="M-2.13,-2.13 L2.13,-2.13 2.13,2.13 -2.13,2.13  z" class="primitive"/>
          </g>
          <g transform="translate(93.88,42.45)" id="img-3853cb6b-150" fill="#97C200" fill-opacity="1">
            <path d="M-2.13,-2.13 L2.13,-2.13 2.13,2.13 -2.13,2.13  z" class="primitive"/>
          </g>
          <g transform="translate(93.88,46.67)" id="img-3853cb6b-151" fill="#FF0000" fill-opacity="1">
            <path d="M-2.13,-2.13 L2.13,-2.13 2.13,2.13 -2.13,2.13  z" class="primitive"/>
          </g>
          <g transform="translate(93.88,50.89)" id="img-3853cb6b-152" fill="#008000" fill-opacity="1">
            <path d="M-2.13,-2.13 L2.13,-2.13 2.13,2.13 -2.13,2.13  z" class="primitive"/>
          </g>
          <g transform="translate(93.88,55.11)" id="img-3853cb6b-153" fill="#008000" fill-opacity="1">
            <path d="M-2.13,-2.13 L2.13,-2.13 2.13,2.13 -2.13,2.13  z" class="primitive"/>
          </g>
          <g transform="translate(93.88,59.33)" id="img-3853cb6b-154" fill="#FFFB00" fill-opacity="1">
            <path d="M-2.13,-2.13 L2.13,-2.13 2.13,2.13 -2.13,2.13  z" class="primitive"/>
          </g>
          <g transform="translate(93.88,63.55)" id="img-3853cb6b-155" fill="#008000" fill-opacity="1">
            <path d="M-2.13,-2.13 L2.13,-2.13 2.13,2.13 -2.13,2.13  z" class="primitive"/>
          </g>
          <g transform="translate(93.88,67.77)" id="img-3853cb6b-156" fill="#5CA100" fill-opacity="1">
            <path d="M-2.13,-2.13 L2.13,-2.13 2.13,2.13 -2.13,2.13  z" class="primitive"/>
          </g>
          <g transform="translate(93.88,71.99)" id="img-3853cb6b-157" fill="#FF3C00" fill-opacity="1">
            <path d="M-2.13,-2.13 L2.13,-2.13 2.13,2.13 -2.13,2.13  z" class="primitive"/>
          </g>
          <g transform="translate(93.88,76.21)" id="img-3853cb6b-158" fill="#AACE00" fill-opacity="1">
            <path d="M-2.13,-2.13 L2.13,-2.13 2.13,2.13 -2.13,2.13  z" class="primitive"/>
          </g>
          <g transform="translate(93.88,80.43)" id="img-3853cb6b-159" fill="#288900" fill-opacity="1">
            <path d="M-2.13,-2.13 L2.13,-2.13 2.13,2.13 -2.13,2.13  z" class="primitive"/>
          </g>
          <g transform="translate(93.88,84.65)" id="img-3853cb6b-160" fill="#008000" fill-opacity="1">
            <path d="M-2.13,-2.13 L2.13,-2.13 2.13,2.13 -2.13,2.13  z" class="primitive"/>
          </g>
          <g transform="translate(93.88,88.87)" id="img-3853cb6b-161" fill="#008000" fill-opacity="1">
            <path d="M-2.13,-2.13 L2.13,-2.13 2.13,2.13 -2.13,2.13  z" class="primitive"/>
          </g>
          <g transform="translate(98.1,17.13)" id="img-3853cb6b-162" fill="#3E9200" fill-opacity="1">
            <path d="M-2.13,-2.13 L2.13,-2.13 2.13,2.13 -2.13,2.13  z" class="primitive"/>
          </g>
          <g transform="translate(98.1,21.35)" id="img-3853cb6b-163" fill="#FFE400" fill-opacity="1">
            <path d="M-2.13,-2.13 L2.13,-2.13 2.13,2.13 -2.13,2.13  z" class="primitive"/>
          </g>
          <g transform="translate(98.1,25.57)" id="img-3853cb6b-164" fill="#4F9A00" fill-opacity="1">
            <path d="M-2.13,-2.13 L2.13,-2.13 2.13,2.13 -2.13,2.13  z" class="primitive"/>
          </g>
          <g transform="translate(98.1,29.79)" id="img-3853cb6b-165" fill="#148300" fill-opacity="1">
            <path d="M-2.13,-2.13 L2.13,-2.13 2.13,2.13 -2.13,2.13  z" class="primitive"/>
          </g>
          <g transform="translate(98.1,34.01)" id="img-3853cb6b-166" fill="#008000" fill-opacity="1">
            <path d="M-2.13,-2.13 L2.13,-2.13 2.13,2.13 -2.13,2.13  z" class="primitive"/>
          </g>
          <g transform="translate(98.1,38.23)" id="img-3853cb6b-167" fill="#84B800" fill-opacity="1">
            <path d="M-2.13,-2.13 L2.13,-2.13 2.13,2.13 -2.13,2.13  z" class="primitive"/>
          </g>
          <g transform="translate(98.1,42.45)" id="img-3853cb6b-168" fill="#79B100" fill-opacity="1">
            <path d="M-2.13,-2.13 L2.13,-2.13 2.13,2.13 -2.13,2.13  z" class="primitive"/>
          </g>
          <g transform="translate(98.1,46.67)" id="img-3853cb6b-169" fill="#008000" fill-opacity="1">
            <path d="M-2.13,-2.13 L2.13,-2.13 2.13,2.13 -2.13,2.13  z" class="primitive"/>
          </g>
          <g transform="translate(98.1,50.89)" id="img-3853cb6b-170" fill="#CAE000" fill-opacity="1">
            <path d="M-2.13,-2.13 L2.13,-2.13 2.13,2.13 -2.13,2.13  z" class="primitive"/>
          </g>
          <g transform="translate(98.1,55.11)" id="img-3853cb6b-171" fill="#94C100" fill-opacity="1">
            <path d="M-2.13,-2.13 L2.13,-2.13 2.13,2.13 -2.13,2.13  z" class="primitive"/>
          </g>
          <g transform="translate(98.1,59.33)" id="img-3853cb6b-172" fill="#008000" fill-opacity="1">
            <path d="M-2.13,-2.13 L2.13,-2.13 2.13,2.13 -2.13,2.13  z" class="primitive"/>
          </g>
          <g transform="translate(98.1,63.55)" id="img-3853cb6b-173" fill="#248800" fill-opacity="1">
            <path d="M-2.13,-2.13 L2.13,-2.13 2.13,2.13 -2.13,2.13  z" class="primitive"/>
          </g>
          <g transform="translate(98.1,67.77)" id="img-3853cb6b-174" fill="#008000" fill-opacity="1">
            <path d="M-2.13,-2.13 L2.13,-2.13 2.13,2.13 -2.13,2.13  z" class="primitive"/>
          </g>
          <g transform="translate(98.1,71.99)" id="img-3853cb6b-175" fill="#008000" fill-opacity="1">
            <path d="M-2.13,-2.13 L2.13,-2.13 2.13,2.13 -2.13,2.13  z" class="primitive"/>
          </g>
          <g transform="translate(98.1,76.21)" id="img-3853cb6b-176" fill="#008000" fill-opacity="1">
            <path d="M-2.13,-2.13 L2.13,-2.13 2.13,2.13 -2.13,2.13  z" class="primitive"/>
          </g>
          <g transform="translate(98.1,80.43)" id="img-3853cb6b-177" fill="#FF0000" fill-opacity="1">
            <path d="M-2.13,-2.13 L2.13,-2.13 2.13,2.13 -2.13,2.13  z" class="primitive"/>
          </g>
          <g transform="translate(98.1,84.65)" id="img-3853cb6b-178" fill="#E6F000" fill-opacity="1">
            <path d="M-2.13,-2.13 L2.13,-2.13 2.13,2.13 -2.13,2.13  z" class="primitive"/>
          </g>
          <g transform="translate(98.1,88.87)" id="img-3853cb6b-179" fill="#008000" fill-opacity="1">
            <path d="M-2.13,-2.13 L2.13,-2.13 2.13,2.13 -2.13,2.13  z" class="primitive"/>
          </g>
        </g>
      </g>
    </g>
  </g>
  <g class="guide ylabels" font-size="2.82" font-family="'PT Sans Caption','Helvetica Neue','Helvetica',sans-serif" fill="#6C606B" id="img-3853cb6b-180">
    <g transform="translate(65.43,17.11)" id="img-3853cb6b-181">
      <g class="primitive">
        <text text-anchor="end" dy="0.35em">Drainage density A</text>
      </g>
    </g>
    <g transform="translate(65.43,21.33)" id="img-3853cb6b-182">
      <g class="primitive">
        <text text-anchor="end" dy="0.35em">Fault intersection density A</text>
      </g>
    </g>
    <g transform="translate(65.43,25.55)" id="img-3853cb6b-183">
      <g class="primitive">
        <text text-anchor="end" dy="0.35em">Magnetic intensity B</text>
      </g>
    </g>
    <g transform="translate(65.43,29.77)" id="img-3853cb6b-184">
      <g class="primitive">
        <text text-anchor="end" dy="0.35em">Crustal thickness B</text>
      </g>
    </g>
    <g transform="translate(65.43,33.99)" id="img-3853cb6b-185">
      <g class="primitive">
        <text text-anchor="end" dy="0.35em">Volcanic dike density C</text>
      </g>
    </g>
    <g transform="translate(65.43,38.21)" id="img-3853cb6b-186">
      <g class="primitive">
        <text text-anchor="end" dy="0.35em">State map fault density C</text>
      </g>
    </g>
    <g transform="translate(65.43,42.43)" id="img-3853cb6b-187">
      <g class="primitive">
        <text text-anchor="end" dy="0.35em">Boron concentration D</text>
      </g>
    </g>
    <g transform="translate(65.43,46.65)" id="img-3853cb6b-188">
      <g class="primitive">
        <text text-anchor="end" dy="0.35em">Seismicity D</text>
      </g>
    </g>
    <g transform="translate(65.43,50.87)" id="img-3853cb6b-189">
      <g class="primitive">
        <text text-anchor="end" dy="0.35em">Lithium concentration D</text>
      </g>
    </g>
    <g transform="translate(65.43,55.09)" id="img-3853cb6b-190">
      <g class="primitive">
        <text text-anchor="end" dy="0.35em">Silica geothermometer E</text>
      </g>
    </g>
    <g transform="translate(65.43,59.3)" id="img-3853cb6b-191">
      <g class="primitive">
        <text text-anchor="end" dy="0.35em">Hydraulic gradient E</text>
      </g>
    </g>
    <g transform="translate(65.43,63.52)" id="img-3853cb6b-192">
      <g class="primitive">
        <text text-anchor="end" dy="0.35em">Depth to basement E</text>
      </g>
    </g>
    <g transform="translate(65.43,67.74)" id="img-3853cb6b-193">
      <g class="primitive">
        <text text-anchor="end" dy="0.35em">Gravity anomaly F</text>
      </g>
    </g>
    <g transform="translate(65.43,71.96)" id="img-3853cb6b-194">
      <g class="primitive">
        <text text-anchor="end" dy="0.35em">Spring density G</text>
      </g>
    </g>
    <g transform="translate(65.43,76.18)" id="img-3853cb6b-195">
      <g class="primitive">
        <text text-anchor="end" dy="0.35em">Heat flow G</text>
      </g>
    </g>
    <g transform="translate(65.43,80.4)" id="img-3853cb6b-196">
      <g class="primitive">
        <text text-anchor="end" dy="0.35em">Quaternary fault density H</text>
      </g>
    </g>
    <g transform="translate(65.43,84.62)" id="img-3853cb6b-197">
      <g class="primitive">
        <text text-anchor="end" dy="0.35em">Volcanic vent density H</text>
      </g>
    </g>
    <g transform="translate(65.43,88.84)" id="img-3853cb6b-198">
      <g class="primitive">
        <text text-anchor="end" dy="0.35em">Precipitation H</text>
      </g>
    </g>
  </g>
  <g stroke-width="0.11" stroke="#FFFFFF" id="img-3853cb6b-199">
    <g transform="translate(87.53,12.82)" id="img-3853cb6b-200">
      <path fill="none" d="M-2.11,1.12 L-2.11,-1.12 2.11,-1.12 2.11,1.12 " class="primitive"/>
    </g>
    <g transform="translate(95.97,12.82)" id="img-3853cb6b-201">
      <path fill="none" d="M-2.11,1.12 L-2.11,-1.12 2.11,-1.12 2.11,1.12 " class="primitive"/>
    </g>
    <g transform="translate(79.09,12.82)" id="img-3853cb6b-202">
      <path fill="none" d="M-2.11,1.12 L-2.11,-1.12 2.11,-1.12 2.11,1.12 " class="primitive"/>
    </g>
    <g transform="translate(70.65,12.82)" id="img-3853cb6b-203">
      <path fill="none" d="M-2.11,1.12 L-2.11,-1.12 2.11,-1.12 2.11,1.12 " class="primitive"/>
    </g>
    <g transform="translate(91.75,10.59)" id="img-3853cb6b-204">
      <path fill="none" d="M-4.22,1.12 L-4.22,-1.12 4.22,-1.12 4.22,1.12 " class="primitive"/>
    </g>
    <g transform="translate(85.42,8.91)" id="img-3853cb6b-205">
      <path fill="none" d="M-6.33,2.79 L-6.33,-1.68 6.33,-1.68 6.33,0.56 " class="primitive"/>
    </g>
    <g transform="translate(78.04,7.24)" id="img-3853cb6b-206">
      <path fill="none" d="M-7.38,4.47 L-7.38,-2.24 7.38,-2.24 7.38,-0 " class="primitive"/>
    </g>
  </g>
</g>
<defs>
  <clipPath id="img-3853cb6b-4">
    <path d="M66.43,15 L100.19,15 100.19,90.95 66.43,90.95 " />
  </clipPath>
</defs>
</svg>
