<?xml version="1.0" encoding="UTF-8"?>
<svg xmlns="http://www.w3.org/2000/svg"
     xmlns:xlink="http://www.w3.org/1999/xlink"
     xmlns:gadfly="http://www.gadflyjl.org/ns"
     version="1.2"
     width="141.42mm" height="100mm" viewBox="0 0 141.42 100"
     stroke="none"
     fill="#000000"
     stroke-width="0.3"
     font-size="3.88"
>
<defs>
  <marker id="arrow" markerWidth="15" markerHeight="7" refX="5" refY="3.5" orient="auto" markerUnits="strokeWidth">
    <path d="M0,0 L15,3.5 L0,7 z" stroke="context-stroke" fill="context-stroke"/>
  </marker>
</defs>
<g class="plotroot" id="img-dd4f4b0a-1">
  <g class="guide xlabels" font-size="2.82" font-family="'PT Sans Caption','Helvetica Neue','Helvetica',sans-serif" fill="#6C606B" id="img-dd4f4b0a-2">
    <g transform="translate(74.62,91.95)">
      <g class="primitive">
        <text text-anchor="middle" dy="0.6em">A</text>
      </g>
    </g>
    <g transform="translate(78.98,91.95)">
      <g class="primitive">
        <text text-anchor="middle" dy="0.6em">B</text>
      </g>
    </g>
    <g transform="translate(83.34,91.95)">
      <g class="primitive">
        <text text-anchor="middle" dy="0.6em">C</text>
      </g>
    </g>
    <g transform="translate(87.7,91.95)">
      <g class="primitive">
        <text text-anchor="middle" dy="0.6em">D</text>
      </g>
    </g>
    <g transform="translate(92.05,91.95)">
      <g class="primitive">
        <text text-anchor="middle" dy="0.6em">E</text>
      </g>
    </g>
  </g>
  <g stroke-width="0.11" stroke="#FFFFFF" id="img-dd4f4b0a-3">
    <g transform="translate(96.45,29.93)">
      <path fill="none" d="M-1.16,2.18 L1.16,2.18 1.16,-2.18 -1.16,-2.18 " class="primitive"/>
    </g>
    <g transform="translate(96.45,82.23)">
      <path fill="none" d="M-1.16,2.18 L1.16,2.18 1.16,-2.18 -1.16,-2.18 " class="primitive"/>
    </g>
    <g transform="translate(96.45,60.44)">
      <path fill="none" d="M-1.16,2.18 L1.16,2.18 1.16,-2.18 -1.16,-2.18 " class="primitive"/>
    </g>
    <g transform="translate(96.45,43.01)">
      <path fill="none" d="M-1.16,2.18 L1.16,2.18 1.16,-2.18 -1.16,-2.18 " class="primitive"/>
    </g>
    <g transform="translate(98.2,33.2)">
      <path fill="none" d="M-2.9,3.27 L1.74,3.27 1.74,-3.27 -0.58,-3.27 " class="primitive"/>
    </g>
    <g transform="translate(96.45,51.73)">
      <path fill="none" d="M-1.16,2.18 L1.16,2.18 1.16,-2.18 -1.16,-2.18 " class="primitive"/>
    </g>
    <g transform="translate(96.45,16.86)">
      <path fill="none" d="M-1.16,2.18 L1.16,2.18 1.16,-2.18 -1.16,-2.18 " class="primitive"/>
    </g>
    <g transform="translate(100.52,38.11)">
      <path fill="none" d="M-2.9,4.9 L1.74,4.9 1.74,-4.9 -0.58,-4.9 " class="primitive"/>
    </g>
    <g transform="translate(98.2,20.13)">
      <path fill="none" d="M-2.9,3.27 L1.74,3.27 1.74,-3.27 -0.58,-3.27 " class="primitive"/>
    </g>
    <g transform="translate(98.78,56.08)">
      <path fill="none" d="M-1.16,4.36 L1.16,4.36 1.16,-4.36 -1.16,-4.36 " class="primitive"/>
    </g>
    <g transform="translate(98.2,85.5)">
      <path fill="none" d="M-2.9,3.27 L1.74,3.27 1.74,-3.27 -0.58,-3.27 " class="primitive"/>
    </g>
    <g transform="translate(96.45,73.52)">
      <path fill="none" d="M-1.16,2.18 L1.16,2.18 1.16,-2.18 -1.16,-2.18 " class="primitive"/>
    </g>
    <g transform="translate(99.94,61.53)">
      <path fill="none" d="M-4.65,5.45 L2.32,5.45 2.32,-5.45 0,-5.45 " class="primitive"/>
    </g>
    <g transform="translate(102.26,67.52)">
      <path fill="none" d="M-4.65,5.99 L2.32,5.99 2.32,-5.99 0,-5.99 " class="primitive"/>
    </g>
    <g transform="translate(102.84,29.12)">
      <path fill="none" d="M-0.58,8.99 L1.74,8.99 1.74,-8.99 -2.9,-8.99 " class="primitive"/>
    </g>
    <g transform="translate(105.75,48.32)">
      <path fill="none" d="M-1.16,19.2 L1.16,19.2 1.16,-19.2 -1.16,-19.2 " class="primitive"/>
    </g>
    <g transform="translate(106.33,66.91)">
      <path fill="none" d="M-6.39,18.59 L2.9,18.59 2.9,-18.59 0.58,-18.59 " class="primitive"/>
    </g>
  </g>
  <g clip-path="url(#img-dd4f4b0a-4)">
    <g id="img-dd4f4b0a-5">
      <g pointer-events="visible" stroke-width="0.3" fill="#000000" fill-opacity="0.000" stroke="#000000" stroke-opacity="0.000" class="guide background" id="img-dd4f4b0a-6">
        <g transform="translate(83.34,51.73)" id="img-dd4f4b0a-7">
          <path d="M-10.9,-39.23 L10.9,-39.23 10.9,39.23 -10.9,39.23  z" class="primitive"/>
        </g>
      </g>
      <g class="guide ygridlines xfixed" stroke-dasharray="0.5,0.5" stroke-width="0.2" stroke="#D0D0E0" id="img-dd4f4b0a-8">
        <g transform="translate(83.34,16.86)" id="img-dd4f4b0a-9">
          <path fill="none" d="M-10.9,0 L10.9,0 " class="primitive"/>
        </g>
        <g transform="translate(83.34,21.22)" id="img-dd4f4b0a-10">
          <path fill="none" d="M-10.9,0 L10.9,0 " class="primitive"/>
        </g>
        <g transform="translate(83.34,25.58)" id="img-dd4f4b0a-11">
          <path fill="none" d="M-10.9,0 L10.9,0 " class="primitive"/>
        </g>
        <g transform="translate(83.34,29.93)" id="img-dd4f4b0a-12">
          <path fill="none" d="M-10.9,0 L10.9,0 " class="primitive"/>
        </g>
        <g transform="translate(83.34,34.29)" id="img-dd4f4b0a-13">
          <path fill="none" d="M-10.9,0 L10.9,0 " class="primitive"/>
        </g>
        <g transform="translate(83.34,38.65)" id="img-dd4f4b0a-14">
          <path fill="none" d="M-10.9,0 L10.9,0 " class="primitive"/>
        </g>
        <g transform="translate(83.34,43.01)" id="img-dd4f4b0a-15">
          <path fill="none" d="M-10.9,0 L10.9,0 " class="primitive"/>
        </g>
        <g transform="translate(83.34,47.37)" id="img-dd4f4b0a-16">
          <path fill="none" d="M-10.9,0 L10.9,0 " class="primitive"/>
        </g>
        <g transform="translate(83.34,51.73)" id="img-dd4f4b0a-17">
          <path fill="none" d="M-10.9,0 L10.9,0 " class="primitive"/>
        </g>
        <g transform="translate(83.34,56.08)" id="img-dd4f4b0a-18">
          <path fill="none" d="M-10.9,0 L10.9,0 " class="primitive"/>
        </g>
        <g transform="translate(83.34,60.44)" id="img-dd4f4b0a-19">
          <path fill="none" d="M-10.9,0 L10.9,0 " class="primitive"/>
        </g>
        <g transform="translate(83.34,64.8)" id="img-dd4f4b0a-20">
          <path fill="none" d="M-10.9,0 L10.9,0 " class="primitive"/>
        </g>
        <g transform="translate(83.34,69.16)" id="img-dd4f4b0a-21">
          <path fill="none" d="M-10.9,0 L10.9,0 " class="primitive"/>
        </g>
        <g transform="translate(83.34,73.52)" id="img-dd4f4b0a-22">
          <path fill="none" d="M-10.9,0 L10.9,0 " class="primitive"/>
        </g>
        <g transform="translate(83.34,77.88)" id="img-dd4f4b0a-23">
          <path fill="none" d="M-10.9,0 L10.9,0 " class="primitive"/>
        </g>
        <g transform="translate(83.34,82.23)" id="img-dd4f4b0a-24">
          <path fill="none" d="M-10.9,0 L10.9,0 " class="primitive"/>
        </g>
        <g transform="translate(83.34,86.59)" id="img-dd4f4b0a-25">
          <path fill="none" d="M-10.9,0 L10.9,0 " class="primitive"/>
        </g>
      </g>
      <g class="guide xgridlines yfixed" stroke-dasharray="0.5,0.5" stroke-width="0.2" stroke="#D0D0E0" id="img-dd4f4b0a-26">
        <g transform="translate(76.8,51.73)" id="img-dd4f4b0a-27">
          <path fill="none" d="M0,-39.23 L0,39.23 " class="primitive"/>
        </g>
        <g transform="translate(81.16,51.73)" id="img-dd4f4b0a-28">
          <path fill="none" d="M0,-39.23 L0,39.23 " class="primitive"/>
        </g>
        <g transform="translate(85.52,51.73)" id="img-dd4f4b0a-29">
          <path fill="none" d="M0,-39.23 L0,39.23 " class="primitive"/>
        </g>
        <g transform="translate(89.88,51.73)" id="img-dd4f4b0a-30">
          <path fill="none" d="M0,-39.23 L0,39.23 " class="primitive"/>
        </g>
      </g>
      <g class="plotpanel" id="img-dd4f4b0a-31">
        <metadata>
          <boundingbox value="72.44150350988258mm 12.5mm 21.79200047622492mm 78.45120171440972mm"/>
          <unitbox value="0.5 0.5 5.0 18.0"/>
        </metadata>
        <g shape-rendering="crispEdges" class="geometry" stroke="#000000" stroke-opacity="0.000" id="img-dd4f4b0a-32">
          <g transform="translate(74.65,14.7)" id="img-dd4f4b0a-33" fill="#FFE600" fill-opacity="1">
            <path d="M-2.2,-2.2 L2.2,-2.2 2.2,2.2 -2.2,2.2  z" class="primitive"/>
          </g>
          <g transform="translate(74.65,19.06)" id="img-dd4f4b0a-34" fill="#FF0000" fill-opacity="1">
            <path d="M-2.2,-2.2 L2.2,-2.2 2.2,2.2 -2.2,2.2  z" class="primitive"/>
          </g>
          <g transform="translate(74.65,23.42)" id="img-dd4f4b0a-35" fill="#89BA00" fill-opacity="1">
            <path d="M-2.2,-2.2 L2.2,-2.2 2.2,2.2 -2.2,2.2  z" class="primitive"/>
          </g>
          <g transform="translate(74.65,27.78)" id="img-dd4f4b0a-36" fill="#008000" fill-opacity="1">
            <path d="M-2.2,-2.2 L2.2,-2.2 2.2,2.2 -2.2,2.2  z" class="primitive"/>
          </g>
          <g transform="translate(74.65,32.14)" id="img-dd4f4b0a-37" fill="#328D00" fill-opacity="1">
            <path d="M-2.2,-2.2 L2.2,-2.2 2.2,2.2 -2.2,2.2  z" class="primitive"/>
          </g>
          <g transform="translate(74.65,36.5)" id="img-dd4f4b0a-38" fill="#008000" fill-opacity="1">
            <path d="M-2.2,-2.2 L2.2,-2.2 2.2,2.2 -2.2,2.2  z" class="primitive"/>
          </g>
          <g transform="translate(74.65,40.85)" id="img-dd4f4b0a-39" fill="#5DA200" fill-opacity="1">
            <path d="M-2.2,-2.2 L2.2,-2.2 2.2,2.2 -2.2,2.2  z" class="primitive"/>
          </g>
          <g transform="translate(74.65,45.21)" id="img-dd4f4b0a-40" fill="#008000" fill-opacity="1">
            <path d="M-2.2,-2.2 L2.2,-2.2 2.2,2.2 -2.2,2.2  z" class="primitive"/>
          </g>
          <g transform="translate(74.65,49.57)" id="img-dd4f4b0a-41" fill="#F2F800" fill-opacity="1">
            <path d="M-2.2,-2.2 L2.2,-2.2 2.2,2.2 -2.2,2.2  z" class="primitive"/>
          </g>
          <g transform="translate(74.65,53.93)" id="img-dd4f4b0a-42" fill="#FFD000" fill-opacity="1">
            <path d="M-2.2,-2.2 L2.2,-2.2 2.2,2.2 -2.2,2.2  z" class="primitive"/>
          </g>
          <g transform="translate(74.65,58.29)" id="img-dd4f4b0a-43" fill="#008000" fill-opacity="1">
            <path d="M-2.2,-2.2 L2.2,-2.2 2.2,2.2 -2.2,2.2  z" class="primitive"/>
          </g>
          <g transform="translate(74.65,62.65)" id="img-dd4f4b0a-44" fill="#75AF00" fill-opacity="1">
            <path d="M-2.2,-2.2 L2.2,-2.2 2.2,2.2 -2.2,2.2  z" class="primitive"/>
          </g>
          <g transform="translate(74.65,67.01)" id="img-dd4f4b0a-45" fill="#FFB100" fill-opacity="1">
            <path d="M-2.2,-2.2 L2.2,-2.2 2.2,2.2 -2.2,2.2  z" class="primitive"/>
          </g>
          <g transform="translate(74.65,71.36)" id="img-dd4f4b0a-46" fill="#5AA000" fill-opacity="1">
            <path d="M-2.2,-2.2 L2.2,-2.2 2.2,2.2 -2.2,2.2  z" class="primitive"/>
          </g>
          <g transform="translate(74.65,75.72)" id="img-dd4f4b0a-47" fill="#539D00" fill-opacity="1">
            <path d="M-2.2,-2.2 L2.2,-2.2 2.2,2.2 -2.2,2.2  z" class="primitive"/>
          </g>
          <g transform="translate(74.65,80.08)" id="img-dd4f4b0a-48" fill="#008000" fill-opacity="1">
            <path d="M-2.2,-2.2 L2.2,-2.2 2.2,2.2 -2.2,2.2  z" class="primitive"/>
          </g>
          <g transform="translate(74.65,84.44)" id="img-dd4f4b0a-49" fill="#81B500" fill-opacity="1">
            <path d="M-2.2,-2.2 L2.2,-2.2 2.2,2.2 -2.2,2.2  z" class="primitive"/>
          </g>
          <g transform="translate(74.65,88.8)" id="img-dd4f4b0a-50" fill="#008000" fill-opacity="1">
            <path d="M-2.2,-2.2 L2.2,-2.2 2.2,2.2 -2.2,2.2  z" class="primitive"/>
          </g>
          <g transform="translate(79,14.7)" id="img-dd4f4b0a-51" fill="#008000" fill-opacity="1">
            <path d="M-2.2,-2.2 L2.2,-2.2 2.2,2.2 -2.2,2.2  z" class="primitive"/>
          </g>
          <g transform="translate(79,19.06)" id="img-dd4f4b0a-52" fill="#FFFC00" fill-opacity="1">
            <path d="M-2.2,-2.2 L2.2,-2.2 2.2,2.2 -2.2,2.2  z" class="primitive"/>
          </g>
          <g transform="translate(79,23.42)" id="img-dd4f4b0a-53" fill="#FFE700" fill-opacity="1">
            <path d="M-2.2,-2.2 L2.2,-2.2 2.2,2.2 -2.2,2.2  z" class="primitive"/>
          </g>
          <g transform="translate(79,27.78)" id="img-dd4f4b0a-54" fill="#F7FA00" fill-opacity="1">
            <path d="M-2.2,-2.2 L2.2,-2.2 2.2,2.2 -2.2,2.2  z" class="primitive"/>
          </g>
          <g transform="translate(79,32.14)" id="img-dd4f4b0a-55" fill="#008000" fill-opacity="1">
            <path d="M-2.2,-2.2 L2.2,-2.2 2.2,2.2 -2.2,2.2  z" class="primitive"/>
          </g>
          <g transform="translate(79,36.5)" id="img-dd4f4b0a-56" fill="#A8CD00" fill-opacity="1">
            <path d="M-2.2,-2.2 L2.2,-2.2 2.2,2.2 -2.2,2.2  z" class="primitive"/>
          </g>
          <g transform="translate(79,40.85)" id="img-dd4f4b0a-57" fill="#008000" fill-opacity="1">
            <path d="M-2.2,-2.2 L2.2,-2.2 2.2,2.2 -2.2,2.2  z" class="primitive"/>
          </g>
          <g transform="translate(79,45.21)" id="img-dd4f4b0a-58" fill="#FF9D00" fill-opacity="1">
            <path d="M-2.2,-2.2 L2.2,-2.2 2.2,2.2 -2.2,2.2  z" class="primitive"/>
          </g>
          <g transform="translate(79,49.57)" id="img-dd4f4b0a-59" fill="#FF0000" fill-opacity="1">
            <path d="M-2.2,-2.2 L2.2,-2.2 2.2,2.2 -2.2,2.2  z" class="primitive"/>
          </g>
          <g transform="translate(79,53.93)" id="img-dd4f4b0a-60" fill="#EFF600" fill-opacity="1">
            <path d="M-2.2,-2.2 L2.2,-2.2 2.2,2.2 -2.2,2.2  z" class="primitive"/>
          </g>
          <g transform="translate(79,58.29)" id="img-dd4f4b0a-61" fill="#008000" fill-opacity="1">
            <path d="M-2.2,-2.2 L2.2,-2.2 2.2,2.2 -2.2,2.2  z" class="primitive"/>
          </g>
          <g transform="translate(79,62.65)" id="img-dd4f4b0a-62" fill="#008000" fill-opacity="1">
            <path d="M-2.2,-2.2 L2.2,-2.2 2.2,2.2 -2.2,2.2  z" class="primitive"/>
          </g>
          <g transform="translate(79,67.01)" id="img-dd4f4b0a-63" fill="#008000" fill-opacity="1">
            <path d="M-2.2,-2.2 L2.2,-2.2 2.2,2.2 -2.2,2.2  z" class="primitive"/>
          </g>
          <g transform="translate(79,71.36)" id="img-dd4f4b0a-64" fill="#148300" fill-opacity="1">
            <path d="M-2.2,-2.2 L2.2,-2.2 2.2,2.2 -2.2,2.2  z" class="primitive"/>
          </g>
          <g transform="translate(79,75.72)" id="img-dd4f4b0a-65" fill="#FFF800" fill-opacity="1">
            <path d="M-2.2,-2.2 L2.2,-2.2 2.2,2.2 -2.2,2.2  z" class="primitive"/>
          </g>
          <g transform="translate(79,80.08)" id="img-dd4f4b0a-66" fill="#318C00" fill-opacity="1">
            <path d="M-2.2,-2.2 L2.2,-2.2 2.2,2.2 -2.2,2.2  z" class="primitive"/>
          </g>
          <g transform="translate(79,84.44)" id="img-dd4f4b0a-67" fill="#FFB400" fill-opacity="1">
            <path d="M-2.2,-2.2 L2.2,-2.2 2.2,2.2 -2.2,2.2  z" class="primitive"/>
          </g>
          <g transform="translate(79,88.8)" id="img-dd4f4b0a-68" fill="#168400" fill-opacity="1">
            <path d="M-2.2,-2.2 L2.2,-2.2 2.2,2.2 -2.2,2.2  z" class="primitive"/>
          </g>
          <g transform="translate(83.36,14.7)" id="img-dd4f4b0a-69" fill="#008000" fill-opacity="1">
            <path d="M-2.2,-2.2 L2.2,-2.2 2.2,2.2 -2.2,2.2  z" class="primitive"/>
          </g>
          <g transform="translate(83.36,19.06)" id="img-dd4f4b0a-70" fill="#FFD500" fill-opacity="1">
            <path d="M-2.2,-2.2 L2.2,-2.2 2.2,2.2 -2.2,2.2  z" class="primitive"/>
          </g>
          <g transform="translate(83.36,23.42)" id="img-dd4f4b0a-71" fill="#FFCD00" fill-opacity="1">
            <path d="M-2.2,-2.2 L2.2,-2.2 2.2,2.2 -2.2,2.2  z" class="primitive"/>
          </g>
          <g transform="translate(83.36,27.78)" id="img-dd4f4b0a-72" fill="#008000" fill-opacity="1">
            <path d="M-2.2,-2.2 L2.2,-2.2 2.2,2.2 -2.2,2.2  z" class="primitive"/>
          </g>
          <g transform="translate(83.36,32.14)" id="img-dd4f4b0a-73" fill="#C5DD00" fill-opacity="1">
            <path d="M-2.2,-2.2 L2.2,-2.2 2.2,2.2 -2.2,2.2  z" class="primitive"/>
          </g>
          <g transform="translate(83.36,36.5)" id="img-dd4f4b0a-74" fill="#579F00" fill-opacity="1">
            <path d="M-2.2,-2.2 L2.2,-2.2 2.2,2.2 -2.2,2.2  z" class="primitive"/>
          </g>
          <g transform="translate(83.36,40.85)" id="img-dd4f4b0a-75" fill="#008000" fill-opacity="1">
            <path d="M-2.2,-2.2 L2.2,-2.2 2.2,2.2 -2.2,2.2  z" class="primitive"/>
          </g>
          <g transform="translate(83.36,45.21)" id="img-dd4f4b0a-76" fill="#A1C800" fill-opacity="1">
            <path d="M-2.2,-2.2 L2.2,-2.2 2.2,2.2 -2.2,2.2  z" class="primitive"/>
          </g>
          <g transform="translate(83.36,49.57)" id="img-dd4f4b0a-77" fill="#008000" fill-opacity="1">
            <path d="M-2.2,-2.2 L2.2,-2.2 2.2,2.2 -2.2,2.2  z" class="primitive"/>
          </g>
          <g transform="translate(83.36,53.93)" id="img-dd4f4b0a-78" fill="#FFDE00" fill-opacity="1">
            <path d="M-2.2,-2.2 L2.2,-2.2 2.2,2.2 -2.2,2.2  z" class="primitive"/>
          </g>
          <g transform="translate(83.36,58.29)" id="img-dd4f4b0a-79" fill="#058100" fill-opacity="1">
            <path d="M-2.2,-2.2 L2.2,-2.2 2.2,2.2 -2.2,2.2  z" class="primitive"/>
          </g>
          <g transform="translate(83.36,62.65)" id="img-dd4f4b0a-80" fill="#FF0000" fill-opacity="1">
            <path d="M-2.2,-2.2 L2.2,-2.2 2.2,2.2 -2.2,2.2  z" class="primitive"/>
          </g>
          <g transform="translate(83.36,67.01)" id="img-dd4f4b0a-81" fill="#EBF400" fill-opacity="1">
            <path d="M-2.2,-2.2 L2.2,-2.2 2.2,2.2 -2.2,2.2  z" class="primitive"/>
          </g>
          <g transform="translate(83.36,71.36)" id="img-dd4f4b0a-82" fill="#008000" fill-opacity="1">
            <path d="M-2.2,-2.2 L2.2,-2.2 2.2,2.2 -2.2,2.2  z" class="primitive"/>
          </g>
          <g transform="translate(83.36,75.72)" id="img-dd4f4b0a-83" fill="#9FC700" fill-opacity="1">
            <path d="M-2.2,-2.2 L2.2,-2.2 2.2,2.2 -2.2,2.2  z" class="primitive"/>
          </g>
          <g transform="translate(83.36,80.08)" id="img-dd4f4b0a-84" fill="#569E00" fill-opacity="1">
            <path d="M-2.2,-2.2 L2.2,-2.2 2.2,2.2 -2.2,2.2  z" class="primitive"/>
          </g>
          <g transform="translate(83.36,84.44)" id="img-dd4f4b0a-85" fill="#008000" fill-opacity="1">
            <path d="M-2.2,-2.2 L2.2,-2.2 2.2,2.2 -2.2,2.2  z" class="primitive"/>
          </g>
          <g transform="translate(83.36,88.8)" id="img-dd4f4b0a-86" fill="#2E8B00" fill-opacity="1">
            <path d="M-2.2,-2.2 L2.2,-2.2 2.2,2.2 -2.2,2.2  z" class="primitive"/>
          </g>
          <g transform="translate(87.72,14.7)" id="img-dd4f4b0a-87" fill="#008000" fill-opacity="1">
            <path d="M-2.2,-2.2 L2.2,-2.2 2.2,2.2 -2.2,2.2  z" class="primitive"/>
          </g>
          <g transform="translate(87.72,19.06)" id="img-dd4f4b0a-88" fill="#7EB400" fill-opacity="1">
            <path d="M-2.2,-2.2 L2.2,-2.2 2.2,2.2 -2.2,2.2  z" class="primitive"/>
          </g>
          <g transform="translate(87.72,23.42)" id="img-dd4f4b0a-89" fill="#A1C800" fill-opacity="1">
            <path d="M-2.2,-2.2 L2.2,-2.2 2.2,2.2 -2.2,2.2  z" class="primitive"/>
          </g>
          <g transform="translate(87.72,27.78)" id="img-dd4f4b0a-90" fill="#FF0000" fill-opacity="1">
            <path d="M-2.2,-2.2 L2.2,-2.2 2.2,2.2 -2.2,2.2  z" class="primitive"/>
          </g>
          <g transform="translate(87.72,32.14)" id="img-dd4f4b0a-91" fill="#FF7700" fill-opacity="1">
            <path d="M-2.2,-2.2 L2.2,-2.2 2.2,2.2 -2.2,2.2  z" class="primitive"/>
          </g>
          <g transform="translate(87.72,36.5)" id="img-dd4f4b0a-92" fill="#C1DB00" fill-opacity="1">
            <path d="M-2.2,-2.2 L2.2,-2.2 2.2,2.2 -2.2,2.2  z" class="primitive"/>
          </g>
          <g transform="translate(87.72,40.85)" id="img-dd4f4b0a-93" fill="#008000" fill-opacity="1">
            <path d="M-2.2,-2.2 L2.2,-2.2 2.2,2.2 -2.2,2.2  z" class="primitive"/>
          </g>
          <g transform="translate(87.72,45.21)" id="img-dd4f4b0a-94" fill="#008000" fill-opacity="1">
            <path d="M-2.2,-2.2 L2.2,-2.2 2.2,2.2 -2.2,2.2  z" class="primitive"/>
          </g>
          <g transform="translate(87.72,49.57)" id="img-dd4f4b0a-95" fill="#569E00" fill-opacity="1">
            <path d="M-2.2,-2.2 L2.2,-2.2 2.2,2.2 -2.2,2.2  z" class="primitive"/>
          </g>
          <g transform="translate(87.72,53.93)" id="img-dd4f4b0a-96" fill="#008000" fill-opacity="1">
            <path d="M-2.2,-2.2 L2.2,-2.2 2.2,2.2 -2.2,2.2  z" class="primitive"/>
          </g>
          <g transform="translate(87.72,58.29)" id="img-dd4f4b0a-97" fill="#FF4000" fill-opacity="1">
            <path d="M-2.2,-2.2 L2.2,-2.2 2.2,2.2 -2.2,2.2  z" class="primitive"/>
          </g>
          <g transform="translate(87.72,62.65)" id="img-dd4f4b0a-98" fill="#008000" fill-opacity="1">
            <path d="M-2.2,-2.2 L2.2,-2.2 2.2,2.2 -2.2,2.2  z" class="primitive"/>
          </g>
          <g transform="translate(87.72,67.01)" id="img-dd4f4b0a-99" fill="#EDF400" fill-opacity="1">
            <path d="M-2.2,-2.2 L2.2,-2.2 2.2,2.2 -2.2,2.2  z" class="primitive"/>
          </g>
          <g transform="translate(87.72,71.36)" id="img-dd4f4b0a-100" fill="#FF5300" fill-opacity="1">
            <path d="M-2.2,-2.2 L2.2,-2.2 2.2,2.2 -2.2,2.2  z" class="primitive"/>
          </g>
          <g transform="translate(87.72,75.72)" id="img-dd4f4b0a-101" fill="#74AE00" fill-opacity="1">
            <path d="M-2.2,-2.2 L2.2,-2.2 2.2,2.2 -2.2,2.2  z" class="primitive"/>
          </g>
          <g transform="translate(87.72,80.08)" id="img-dd4f4b0a-102" fill="#FF8C00" fill-opacity="1">
            <path d="M-2.2,-2.2 L2.2,-2.2 2.2,2.2 -2.2,2.2  z" class="primitive"/>
          </g>
          <g transform="translate(87.72,84.44)" id="img-dd4f4b0a-103" fill="#72AD00" fill-opacity="1">
            <path d="M-2.2,-2.2 L2.2,-2.2 2.2,2.2 -2.2,2.2  z" class="primitive"/>
          </g>
          <g transform="translate(87.72,88.8)" id="img-dd4f4b0a-104" fill="#FFFE00" fill-opacity="1">
            <path d="M-2.2,-2.2 L2.2,-2.2 2.2,2.2 -2.2,2.2  z" class="primitive"/>
          </g>
          <g transform="translate(92.08,14.7)" id="img-dd4f4b0a-105" fill="#008000" fill-opacity="1">
            <path d="M-2.2,-2.2 L2.2,-2.2 2.2,2.2 -2.2,2.2  z" class="primitive"/>
          </g>
          <g transform="translate(92.08,19.06)" id="img-dd4f4b0a-106" fill="#008000" fill-opacity="1">
            <path d="M-2.2,-2.2 L2.2,-2.2 2.2,2.2 -2.2,2.2  z" class="primitive"/>
          </g>
          <g transform="translate(92.08,23.42)" id="img-dd4f4b0a-107" fill="#429400" fill-opacity="1">
            <path d="M-2.2,-2.2 L2.2,-2.2 2.2,2.2 -2.2,2.2  z" class="primitive"/>
          </g>
          <g transform="translate(92.08,27.78)" id="img-dd4f4b0a-108" fill="#008000" fill-opacity="1">
            <path d="M-2.2,-2.2 L2.2,-2.2 2.2,2.2 -2.2,2.2  z" class="primitive"/>
          </g>
          <g transform="translate(92.08,32.14)" id="img-dd4f4b0a-109" fill="#288900" fill-opacity="1">
            <path d="M-2.2,-2.2 L2.2,-2.2 2.2,2.2 -2.2,2.2  z" class="primitive"/>
          </g>
          <g transform="translate(92.08,36.5)" id="img-dd4f4b0a-110" fill="#469600" fill-opacity="1">
            <path d="M-2.2,-2.2 L2.2,-2.2 2.2,2.2 -2.2,2.2  z" class="primitive"/>
          </g>
          <g transform="translate(92.08,40.85)" id="img-dd4f4b0a-111" fill="#FF0000" fill-opacity="1">
            <path d="M-2.2,-2.2 L2.2,-2.2 2.2,2.2 -2.2,2.2  z" class="primitive"/>
          </g>
          <g transform="translate(92.08,45.21)" id="img-dd4f4b0a-112" fill="#008000" fill-opacity="1">
            <path d="M-2.2,-2.2 L2.2,-2.2 2.2,2.2 -2.2,2.2  z" class="primitive"/>
          </g>
          <g transform="translate(92.08,49.57)" id="img-dd4f4b0a-113" fill="#008000" fill-opacity="1">
            <path d="M-2.2,-2.2 L2.2,-2.2 2.2,2.2 -2.2,2.2  z" class="primitive"/>
          </g>
          <g transform="translate(92.08,53.93)" id="img-dd4f4b0a-114" fill="#008000" fill-opacity="1">
            <path d="M-2.2,-2.2 L2.2,-2.2 2.2,2.2 -2.2,2.2  z" class="primitive"/>
          </g>
          <g transform="translate(92.08,58.29)" id="img-dd4f4b0a-115" fill="#218700" fill-opacity="1">
            <path d="M-2.2,-2.2 L2.2,-2.2 2.2,2.2 -2.2,2.2  z" class="primitive"/>
          </g>
          <g transform="translate(92.08,62.65)" id="img-dd4f4b0a-116" fill="#74AE00" fill-opacity="1">
            <path d="M-2.2,-2.2 L2.2,-2.2 2.2,2.2 -2.2,2.2  z" class="primitive"/>
          </g>
          <g transform="translate(92.08,67.01)" id="img-dd4f4b0a-117" fill="#FFE900" fill-opacity="1">
            <path d="M-2.2,-2.2 L2.2,-2.2 2.2,2.2 -2.2,2.2  z" class="primitive"/>
          </g>
          <g transform="translate(92.08,71.36)" id="img-dd4f4b0a-118" fill="#008000" fill-opacity="1">
            <path d="M-2.2,-2.2 L2.2,-2.2 2.2,2.2 -2.2,2.2  z" class="primitive"/>
          </g>
          <g transform="translate(92.08,75.72)" id="img-dd4f4b0a-119" fill="#8ABB00" fill-opacity="1">
            <path d="M-2.2,-2.2 L2.2,-2.2 2.2,2.2 -2.2,2.2  z" class="primitive"/>
          </g>
          <g transform="translate(92.08,80.08)" id="img-dd4f4b0a-120" fill="#FF9F00" fill-opacity="1">
            <path d="M-2.2,-2.2 L2.2,-2.2 2.2,2.2 -2.2,2.2  z" class="primitive"/>
          </g>
          <g transform="translate(92.08,84.44)" id="img-dd4f4b0a-121" fill="#FFEC00" fill-opacity="1">
            <path d="M-2.2,-2.2 L2.2,-2.2 2.2,2.2 -2.2,2.2  z" class="primitive"/>
          </g>
          <g transform="translate(92.08,88.8)" id="img-dd4f4b0a-122" fill="#FFA400" fill-opacity="1">
            <path d="M-2.2,-2.2 L2.2,-2.2 2.2,2.2 -2.2,2.2  z" class="primitive"/>
          </g>
        </g>
      </g>
    </g>
  </g>
  <g class="guide ylabels" font-size="2.82" font-family="'PT Sans Caption','Helvetica Neue','Helvetica',sans-serif" fill="#6C606B" id="img-dd4f4b0a-123">
    <g transform="translate(71.44,14.68)" id="img-dd4f4b0a-124">
      <g class="primitive">
        <text text-anchor="end" dy="0.35em">Volcanic dike density A</text>
      </g>
    </g>
    <g transform="translate(71.44,19.04)" id="img-dd4f4b0a-125">
      <g class="primitive">
        <text text-anchor="end" dy="0.35em">Lithium concentration A</text>
      </g>
    </g>
    <g transform="translate(71.44,23.4)" id="img-dd4f4b0a-126">
      <g class="primitive">
        <text text-anchor="end" dy="0.35em">Boron concentration B</text>
      </g>
    </g>
    <g transform="translate(71.44,27.75)" id="img-dd4f4b0a-127">
      <g class="primitive">
        <text text-anchor="end" dy="0.35em">Quaternary fault density B</text>
      </g>
    </g>
    <g transform="translate(71.44,32.11)" id="img-dd4f4b0a-128">
      <g class="primitive">
        <text text-anchor="end" dy="0.35em">Spring density B</text>
      </g>
    </g>
    <g transform="translate(71.44,36.47)" id="img-dd4f4b0a-129">
      <g class="primitive">
        <text text-anchor="end" dy="0.35em">Volcanic vent density B</text>
      </g>
    </g>
    <g transform="translate(71.44,40.83)" id="img-dd4f4b0a-130">
      <g class="primitive">
        <text text-anchor="end" dy="0.35em">Precipitation B</text>
      </g>
    </g>
    <g transform="translate(71.44,45.19)" id="img-dd4f4b0a-131">
      <g class="primitive">
        <text text-anchor="end" dy="0.35em">Depth to basement B</text>
      </g>
    </g>
    <g transform="translate(71.44,49.55)" id="img-dd4f4b0a-132">
      <g class="primitive">
        <text text-anchor="end" dy="0.35em">Gravity anomaly C</text>
      </g>
    </g>
    <g transform="translate(71.44,53.9)" id="img-dd4f4b0a-133">
      <g class="primitive">
        <text text-anchor="end" dy="0.35em">Magnetic intensity C</text>
      </g>
    </g>
    <g transform="translate(71.44,58.26)" id="img-dd4f4b0a-134">
      <g class="primitive">
        <text text-anchor="end" dy="0.35em">Seismicity C</text>
      </g>
    </g>
    <g transform="translate(71.44,62.62)" id="img-dd4f4b0a-135">
      <g class="primitive">
        <text text-anchor="end" dy="0.35em">Crustal thickness C</text>
      </g>
    </g>
    <g transform="translate(71.44,66.98)" id="img-dd4f4b0a-136">
      <g class="primitive">
        <text text-anchor="end" dy="0.35em">Drainage density D</text>
      </g>
    </g>
    <g transform="translate(71.44,71.34)" id="img-dd4f4b0a-137">
      <g class="primitive">
        <text text-anchor="end" dy="0.35em">Fault intersection density D</text>
      </g>
    </g>
    <g transform="translate(71.44,75.7)" id="img-dd4f4b0a-138">
      <g class="primitive">
        <text text-anchor="end" dy="0.35em">Heat flow D</text>
      </g>
    </g>
    <g transform="translate(71.44,80.06)" id="img-dd4f4b0a-139">
      <g class="primitive">
        <text text-anchor="end" dy="0.35em">State map fault density E</text>
      </g>
    </g>
    <g transform="translate(71.44,84.41)" id="img-dd4f4b0a-140">
      <g class="primitive">
        <text text-anchor="end" dy="0.35em">Silica geothermometer E</text>
      </g>
    </g>
    <g transform="translate(71.44,88.77)" id="img-dd4f4b0a-141">
      <g class="primitive">
        <text text-anchor="end" dy="0.35em">Hydraulic gradient E</text>
      </g>
    </g>
  </g>
  <g stroke-width="0.11" stroke="#FFFFFF" id="img-dd4f4b0a-142">
    <g transform="translate(81.16,10.37)" id="img-dd4f4b0a-143">
      <path fill="none" d="M-2.18,1.07 L-2.18,-1.07 2.18,-1.07 2.18,1.07 " class="primitive"/>
    </g>
    <g transform="translate(77.89,8.76)" id="img-dd4f4b0a-144">
      <path fill="none" d="M-3.27,2.68 L-3.27,-1.61 3.27,-1.61 3.27,0.54 " class="primitive"/>
    </g>
    <g transform="translate(89.88,10.37)" id="img-dd4f4b0a-145">
      <path fill="none" d="M-2.18,1.07 L-2.18,-1.07 2.18,-1.07 2.18,1.07 " class="primitive"/>
    </g>
    <g transform="translate(83.88,6.61)" id="img-dd4f4b0a-146">
      <path fill="none" d="M-5.99,0.54 L-5.99,-1.61 5.99,-1.61 5.99,2.68 " class="primitive"/>
    </g>
  </g>
</g>
<defs>
  <clipPath id="img-dd4f4b0a-4">
    <path d="M72.44,12.5 L94.23,12.5 94.23,90.95 72.44,90.95 " />
  </clipPath>
</defs>
</svg>
